<?xml version="1.0" encoding="UTF-8" standalone="no"?>
<!-- Created with Inkscape (http://www.inkscape.org/) -->

<svg
   xmlns:dc="http://purl.org/dc/elements/1.1/"
   xmlns:cc="http://creativecommons.org/ns#"
   xmlns:rdf="http://www.w3.org/1999/02/22-rdf-syntax-ns#"
   xmlns:svg="http://www.w3.org/2000/svg"
   xmlns="http://www.w3.org/2000/svg"
   xmlns:sodipodi="http://sodipodi.sourceforge.net/DTD/sodipodi-0.dtd"
   xmlns:inkscape="http://www.inkscape.org/namespaces/inkscape"
   id="svg2"
   version="1.1"
   inkscape:version="0.48.5 r10040"
   width="743.75"
   height="1052.5"
   xml:space="preserve"
   sodipodi:docname="CertificateOfParticipation_ALC.pdf"><metadata
     id="metadata8"><rdf:RDF><cc:Work
         rdf:about=""><dc:format>image/svg+xml</dc:format><dc:type
           rdf:resource="http://purl.org/dc/dcmitype/StillImage" /><dc:title></dc:title></cc:Work></rdf:RDF></metadata><defs
     id="defs6"><clipPath
       clipPathUnits="userSpaceOnUse"
       id="clipPath18"><path
         d="m 16.84,16.83999 561.3199,0 0,808.3199 -561.3199,0 0,-808.3199 z"
         id="path20" /></clipPath><clipPath
       clipPathUnits="userSpaceOnUse"
       id="clipPath242"><path
         d="m 85.09009,185.2331 425.4546,0 0,116.5083 -425.4546,0 0,-116.5083 z"
         id="path244" /></clipPath></defs><sodipodi:namedview
     pagecolor="#ffffff"
     bordercolor="#666666"
     borderopacity="1"
     objecttolerance="10"
     gridtolerance="10"
     guidetolerance="10"
     inkscape:pageopacity="0"
     inkscape:pageshadow="2"
     inkscape:window-width="1918"
     inkscape:window-height="1179"
     id="namedview4"
     showgrid="false"
     inkscape:zoom="0.89691211"
     inkscape:cx="-99.763145"
     inkscape:cy="-159.61764"
     inkscape:window-x="0"
     inkscape:window-y="19"
     inkscape:window-maximized="1"
     inkscape:current-layer="g16" /><g
     id="g10"
     inkscape:groupmode="layer"
     inkscape:label="CertificateOfParticipation_ALC"
     transform="matrix(1.25,0,0,-1.25,0,1052.5)"><g
       id="g12" /><g
       id="g14"><g
         id="g16"
         clip-path="url(#clipPath18)"><g
           id="g22"
           transform="matrix(0.24,0,0,0.24,56.68008,764.6799)" /><g
           id="g24"
           transform="matrix(0.24,0,0,0.24,56.68008,747.3999)" /><g
           id="g26"
           transform="matrix(0.24,0,0,0.24,83.88322,712.3599)"><text
             transform="scale(1,-1)"
             id="text28"><tspan
               style="fill:#4f81bd;fill-opacity:1;fill-rule:nonzero;stroke:none;font-family:Arial;font-variant:normal;font-weight:bold;font-size:141;writing-mode:lr;-inkscape-font-specification:Arial-BoldMT"
               x="0 102.2814 181.0158 236.0622 283.2126 322.608 369.7584 409.1538 487.8882 566.6226 613.773 692.5074 731.9028 818.3922 865.5426 904.938 999.4644 1078.1988 1133.2452 1180.3956 1219.791 1298.5254 1337.9208 1424.4102 1503.1446 1550.295 1589.6904 1676.1798"
               y="0"
               sodipodi:role="line"
               id="tspan30">Certificate of Participation</tspan></text>
</g><g
           id="g32"
           transform="matrix(0.24,0,0,0.24,507.0771,712.3599)" /><g
           id="g34"
           transform="matrix(0.24,0,0,0.24,295.4801,678.7599)" /><g
           id="g36"
           transform="matrix(0.24,0,0,0.24,295.4801,646.3599)" /><g
           id="g38"
           transform="matrix(0.24,0,0,0.24,225.4525,612.5199)"><text
             transform="scale(1,-1)"
             id="text40"><tspan
               style="fill:#000000;fill-opacity:1;fill-rule:nonzero;stroke:none;font-family:Optima;font-variant:normal;font-weight:normal;font-size:116;writing-mode:lr;-inkscape-font-specification:Optima-Regular"
               x="0 77.8128 168.6176 226.9424 265.7792 330.6 388.9248 453.7456 486.2024 518.6592"
               y="0"
               sodipodi:role="line"
               id="tspan42">Awarded to</tspan></text>
</g><g
           id="g44"
           transform="matrix(0.24,0,0,0.24,365.5077,612.5199)" /><g
           id="g46"
           transform="matrix(0.24,0,0,0.24,295.4801,578.4399)" /><g
           id="g48"
           transform="matrix(0.24,0,0,0.24,106.4801,544.5999)"><text
             transform="scale(1,-1)"
             id="text50"><tspan
               style="fill:#000000;fill-opacity:1;fill-rule:nonzero;stroke:none;font-family:Optima;font-variant:normal;font-weight:normal;font-size:116;writing-mode:lr;-inkscape-font-specification:Optima-Regular"
               x="0 58.3364 116.6728 175.0092 233.3456 291.682 350.0184 408.3548 466.6912 525.0276 583.364 641.7004 700.0368 758.3732 816.7096 875.046 933.3824 991.7188 1050.0552 1108.3916 1166.728 1225.0644 1283.4008 1341.7372 1400.0736 1458.41 1516.7464"
               y="0"
               sodipodi:role="line"
               id="tspan52">___________________________</tspan></text>
</g><g
           id="g54"
           transform="matrix(0.24,0,0,0.24,484.4801,544.5999)" /><g
           id="g56"
           transform="matrix(0.24,0,0,0.24,295.4801,510.5199)" /><g
           id="g58"
           transform="matrix(0.24,0,0,0.24,100.9232,476.6799)"><text
             transform="scale(1,-1)"
             id="text60"><tspan
               style="fill:#000000;fill-opacity:1;fill-rule:nonzero;stroke:none;font-family:Optima;font-variant:normal;font-weight:normal;font-size:116;writing-mode:lr;-inkscape-font-specification:Optima-Regular"
               x="0 58.3364 123.1688 162.0172 194.4856 226.954 291.9024 350.2388 382.7072 428.0516 492.884 551.2204 609.5568 667.8932 713.2376 758.582 791.0504 855.8828 888.3512 920.8196 979.156 1043.9884 1141.1848 1206.0172 1238.4856 1296.822 1329.2904 1361.7588 1426.5912 1491.5396 1524.008 1588.8404"
               y="0"
               sodipodi:role="line"
               id="tspan62">For the successful completion of</tspan></text>
</g><g
           id="g64"
           transform="matrix(0.24,0,0,0.24,490.037,476.6799)" /><g
           id="g66"
           transform="matrix(0.24,0,0,0.24,297.4801,435.3999)" /><g
           id="g68"
           transform="matrix(0.24,0,0,0.24,120.8854,397.4799)"><text
             transform="scale(1,-1)"
             id="text70"><tspan
               style="fill:#4f81bd;fill-opacity:1;fill-rule:nonzero;stroke:none;font-family:Arial;font-variant:normal;font-weight:bold;font-size:116;writing-mode:lr;-inkscape-font-specification:Arial-BoldMT"
               x="0 32.4336 103.7272 142.5408 207.4544 252.88 356.6536 421.5672 492.8608 525.2944 590.208 629.0216"
               y="0"
               sodipodi:role="line"
               id="tspan72">Intermediate</tspan></text>
</g><g
           id="g74"
           transform="matrix(0.24,0,0,0.24,287.3722,397.4799)"><text
             transform="matrix(1,0,0,-1,32.4336,0)"
             id="text76"><tspan
               style="fill:#4f81bd;fill-opacity:1;fill-rule:nonzero;stroke:none;font-family:Arial;font-variant:normal;font-weight:bold;font-size:116;writing-mode:lr;-inkscape-font-specification:Arial-BoldMT"
               x="0 71.2936 103.7272 175.0208 246.3144 311.228"
               y="0"
               sodipodi:role="line"
               id="tspan78">Linux </tspan></text>
</g><g
           id="g80"
           transform="matrix(0.24,0,0,0.24,377.6156,397.4799)"><text
             transform="scale(1,-1)"
             id="text82"><tspan
               style="fill:#4f81bd;fill-opacity:1;fill-rule:nonzero;stroke:none;font-family:Arial;font-variant:normal;font-weight:bold;font-size:116;writing-mode:lr;-inkscape-font-specification:Arial-BoldMT"
               x="0 84.2276 155.4632 226.6988 272.0664 336.922 401.7776"
               y="0"
               sodipodi:role="line"
               id="tspan84">Course </tspan></text>
</g><path
           d="m 52.36,424.5999 2.880001,0 0,2.88 -2.880001,0 0,-2.88 z"
           style="fill:#4f81bd;fill-opacity:1;fill-rule:nonzero;stroke:none"
           id="path86" /><path
           d="m 52.36,424.5999 2.880001,0 0,2.88 -2.880001,0 0,-2.88 z"
           style="fill:#4f81bd;fill-opacity:1;fill-rule:nonzero;stroke:none"
           id="path88" /><path
           d="m 55.24,424.5999 488.4,0 0,2.88 -488.4,0 0,-2.88 z"
           style="fill:#4f81bd;fill-opacity:1;fill-rule:nonzero;stroke:none"
           id="path90" /><path
           d="m 543.64,424.5999 2.87994,0 0,2.88 -2.87994,0 0,-2.88 z"
           style="fill:#4f81bd;fill-opacity:1;fill-rule:nonzero;stroke:none"
           id="path92" /><path
           d="m 543.64,424.5999 2.87994,0 0,2.88 -2.87994,0 0,-2.88 z"
           style="fill:#4f81bd;fill-opacity:1;fill-rule:nonzero;stroke:none"
           id="path94" /><path
           d="m 52.36,391.2399 2.880001,0 0,33.35999 -2.880001,0 0,-33.35999 z"
           style="fill:#4f81bd;fill-opacity:1;fill-rule:nonzero;stroke:none"
           id="path96" /><path
           d="m 543.64,391.2399 2.87994,0 0,33.35999 -2.87994,0 0,-33.35999 z"
           style="fill:#4f81bd;fill-opacity:1;fill-rule:nonzero;stroke:none"
           id="path98" /><g
           id="g100"
           transform="matrix(0.24,0,0,0.24,176.1288,365.0799)"><text
             transform="scale(1,-1)"
             id="text102"><tspan
               style="fill:#4f81bd;fill-opacity:1;fill-rule:nonzero;stroke:none;font-family:Arial;font-variant:normal;font-weight:bold;font-size:116;writing-mode:lr;-inkscape-font-specification:Arial-BoldMT"
               x="0 84.2276 155.4632 259.1788 362.8944 427.75 498.9856 570.2212 602.5968 634.9724 706.208"
               y="0"
               sodipodi:role="line"
               id="tspan104">Commandline</tspan></text>
</g><g
           id="g106"
           transform="matrix(0.24,0,0,0.24,361.2636,365.0799)"><text
             transform="matrix(1,0,0,-1,32.4336,0)"
             id="text108"><tspan
               style="fill:#4f81bd;fill-opacity:1;fill-rule:nonzero;stroke:none;font-family:Arial;font-variant:normal;font-weight:bold;font-size:116;writing-mode:lr;-inkscape-font-specification:Arial-BoldMT"
               x="0 64.9136 136.2072 207.5008"
               y="0"
               sodipodi:role="line"
               id="tspan110">and </tspan></text>
</g><g
           id="g112"
           transform="matrix(0.24,0,0,0.24,426.6151,365.0799)" /><path
           d="m 52.36,359.0799 2.880001,0 0,32.16 -2.880001,0 0,-32.16 z"
           style="fill:#4f81bd;fill-opacity:1;fill-rule:nonzero;stroke:none"
           id="path114" /><path
           d="m 543.64,359.0799 2.87994,0 0,32.16 -2.87994,0 0,-32.16 z"
           style="fill:#4f81bd;fill-opacity:1;fill-rule:nonzero;stroke:none"
           id="path116" /><g
           id="g118"
           transform="matrix(0.24,0,0,0.24,195.5609,332.9199)"><text
             transform="scale(1,-1)"
             id="text120"><tspan
               style="fill:#4f81bd;fill-opacity:1;fill-rule:nonzero;stroke:none;font-family:Arial;font-variant:normal;font-weight:bold;font-size:116;writing-mode:lr;-inkscape-font-specification:Arial-BoldMT"
               x="0 84.2276 149.0832 213.9388 246.3144 311.17"
               y="0"
               sodipodi:role="line"
               id="tspan122">Basic </tspan></text>
</g><g
           id="g124"
           transform="matrix(0.24,0,0,0.24,278.0482,332.9199)"><text
             transform="scale(1,-1)"
             id="text126"><tspan
               style="fill:#4f81bd;fill-opacity:1;fill-rule:nonzero;stroke:none;font-family:Arial;font-variant:normal;font-weight:bold;font-size:116;writing-mode:lr;-inkscape-font-specification:Arial-BoldMT"
               x="0 77.8128 142.6336 187.9664 220.4232 291.74 330.5768 363.0336 434.3504 505.6672"
               y="0"
               sodipodi:role="line"
               id="tspan128">Scripting </tspan></text>
</g><g
           id="g130"
           transform="matrix(0.24,0,0,0.24,407.1833,332.9199)" /><path
           d="m 52.36,322.8399 2.880001,0 0,2.87997 -2.880001,0 0,-2.87997 z"
           style="fill:#4f81bd;fill-opacity:1;fill-rule:nonzero;stroke:none"
           id="path132" /><path
           d="m 52.36,322.8399 2.880001,0 0,2.87997 -2.880001,0 0,-2.87997 z"
           style="fill:#4f81bd;fill-opacity:1;fill-rule:nonzero;stroke:none"
           id="path134" /><path
           d="m 55.24,322.8399 488.4,0 0,2.87997 -488.4,0 0,-2.87997 z"
           style="fill:#4f81bd;fill-opacity:1;fill-rule:nonzero;stroke:none"
           id="path136" /><path
           d="m 543.64,322.8399 2.87994,0 0,2.87997 -2.87994,0 0,-2.87997 z"
           style="fill:#4f81bd;fill-opacity:1;fill-rule:nonzero;stroke:none"
           id="path138" /><path
           d="m 543.64,322.8399 2.87994,0 0,2.87997 -2.87994,0 0,-2.87997 z"
           style="fill:#4f81bd;fill-opacity:1;fill-rule:nonzero;stroke:none"
           id="path140" /><path
           d="m 52.36,325.7199 2.880001,0 0,33.36002 -2.880001,0 0,-33.36002 z"
           style="fill:#4f81bd;fill-opacity:1;fill-rule:nonzero;stroke:none"
           id="path142" /><path
           d="m 543.64,325.7199 2.87994,0 0,33.36002 -2.87994,0 0,-33.36002 z"
           style="fill:#4f81bd;fill-opacity:1;fill-rule:nonzero;stroke:none"
           id="path144" /><g
           id="g146"
           transform="matrix(0.24,0,0,0.24,56.68008,311.5599)" /><g
           id="g148"
           transform="matrix(0.24,0,0,0.24,56.68008,297.1599)" /><g
           id="g150"
           transform="matrix(0.24,0,0,0.24,56.68008,282.5199)" /><g
           id="g152"
           transform="matrix(0.24,0,0,0.24,56.68008,268.1199)" /><g
           id="g154"
           transform="matrix(0.24,0,0,0.24,56.68008,253.4799)" /><g
           id="g156"
           transform="matrix(0.24,0,0,0.24,56.68008,238.8399)" /><g
           id="g158"
           transform="matrix(0.24,0,0,0.24,297.4801,213.8799)" /><g
           id="g160"
           transform="matrix(0.24,0,0,0.24,303.4801,213.8799)" /><g
           id="g162"
           transform="matrix(0.24,0,0,0.24,56.68008,196.3599)" /><g
           id="g164"
           transform="matrix(0.24,0,0,0.24,56.68008,181.9599)" /><g
           id="g166"
           transform="matrix(0.24,0,0,0.24,56.68008,167.3199)" /><g
           id="g168"
           transform="matrix(0.24,0,0,0.24,56.68008,152.9199)" /><g
           id="g170"
           transform="matrix(0.24,0,0,0.24,56.68008,138.2799)" /><g
           id="g172"
           transform="matrix(0.24,0,0,0.24,56.68008,123.6399)" /><g
           id="g174"
           transform="matrix(0.24,0,0,0.24,56.68008,109.2399)"><text
             transform="scale(1,-1)"
             id="text176"><tspan
               style="fill:#000000;fill-opacity:1;fill-rule:nonzero;stroke:none;font-family:Optima;font-variant:normal;font-weight:normal;font-size:50;writing-mode:lr;-inkscape-font-specification:Optima-Regular"
               x="0 38.9 63.9 77.8 102.8"
               y="0"
               sodipodi:role="line"
               id="tspan178">Date:</tspan></text>
</g><g
           id="g180"
           transform="matrix(0.24,0,0,0.24,84.6879,109.2399)" /><g
           id="g182"
           transform="matrix(0.24,0,0,0.24,113.38,109.2399)"><text
             transform="scale(1,-1)"
             id="text184"><tspan
               style="font-size:50px;font-variant:normal;font-weight:normal;writing-mode:lr-tb;fill:#000000;fill-opacity:1;fill-rule:nonzero;stroke:none;font-family:Optima;-inkscape-font-specification:Optima-Regular"
               sodipodi:role="line"
               id="tspan186"
               x="0"
               y="0">March</tspan></text>
</g><g
           id="g188"
           transform="matrix(0.24,0,0,0.24,139.3839,109.2399)"><text
             transform="scale(1,-1)"
             id="text190"
             x="53.333336"
             style="font-size:12px"><tspan
               style="font-size:50px;font-variant:normal;font-weight:normal;writing-mode:lr-tb;fill:#000000;fill-opacity:1;fill-rule:nonzero;stroke:none;font-family:Optima;-inkscape-font-specification:Optima-Regular"
               x="53.333336 81.133331 108.93331"
               y="0"
               sodipodi:role="line"
               id="tspan192">2015</tspan></text>
</g><g
           id="g194"
           transform="matrix(0.24,0,0,0.24,182.0714,109.2399)"><text
             transform="scale(1,-1)"
             id="text196"><tspan
               style="font-size:50px;font-variant:normal;font-weight:normal;writing-mode:lr-tb;fill:#000000;fill-opacity:1;fill-rule:nonzero;stroke:none;font-family:Optima;-inkscape-font-specification:Optima-Regular"
               x="0 13.9 27.799999 52.799999 97.25 127.8 152.8 166.7 205.60001 230.60001 244.5 272.29999 297.29999 311.20001 339 364 380.64999"
               y="0"
               sodipodi:role="line"
               id="tspan198">, EMBL Heidelberg</tspan></text>
</g><g
           id="g200"
           transform="matrix(0.24,0,0,0.24,263.4264,109.2399)" /><g
           id="g202"
           transform="matrix(0.24,0,0,0.24,56.68008,94.59993)"><text
             transform="scale(1,-1)"
             id="text204"><tspan
               style="fill:#000000;fill-opacity:1;fill-rule:nonzero;stroke:none;font-family:Optima;font-variant:normal;font-weight:normal;font-size:50;writing-mode:lr;-inkscape-font-specification:Optima-Regular"
               x="0 25 50 75 88.9 116.7 133.35 158.35 175"
               y="0"
               sodipodi:role="line"
               id="tspan206">Lecturers</tspan></text>
</g><g
           id="g208"
           transform="matrix(0.24,0,0,0.24,103.3476,94.59993)"><text
             transform="scale(1,-1)"
             id="text210"><tspan
               style="fill:#000000;fill-opacity:1;fill-rule:nonzero;stroke:none;font-family:Optima;font-variant:normal;font-weight:normal;font-size:50;writing-mode:lr;-inkscape-font-specification:Optima-Regular"
               x="0"
               y="0"
               id="tspan212">:</tspan></text>
</g><g
           id="g214"
           transform="matrix(0.24,0,0,0.24,106.6835,94.59993)" /><g
           id="g216"
           transform="matrix(0.24,0,0,0.24,113.38,94.59993)"><text
             transform="scale(1,-1)"
             id="text218"><tspan
               style="fill:#000000;fill-opacity:1;fill-rule:nonzero;stroke:none;font-family:Optima;font-variant:normal;font-weight:normal;font-size:50;writing-mode:lr;-inkscape-font-specification:Optima-Regular"
               x="0 38.9 66.7 80.6 105.6 130.6 147.25 161.15 200.05 213.95 241.8 266.8 291.8 305.7 319.6 355.7 369.6 394.6 411.25 436.25 464.1 489.1 503 530.8 558.65 586.45 628.1 669.75 694.75"
               y="0"
               sodipodi:role="line"
               id="tspan220">Holger Dinkel &amp; Frank Thommen</tspan></text>
</g><g
           id="g222"
           transform="matrix(0.24,0,0,0.24,286.8017,94.59993)" /><g
           id="g224"
           transform="matrix(0.24,0,0,0.24,113.38,80.19993)"><text
             transform="scale(1,-1)"
             id="text226"><tspan
               style="fill:#000000;fill-opacity:1;fill-rule:nonzero;stroke:none;font-family:Optima;font-variant:normal;font-weight:normal;font-size:50;writing-mode:lr;-inkscape-font-specification:Optima-Regular"
               x="0 25 38.9 55.55 83.35 108.35 122.25 150.05 166.7 191.7 205.6 219.5 244.5 272.35 300.15 314.05 347.4 375.2 416.85 444.65 472.45 486.35 511.35 525.25 539.15 566.95 594.8 619.8 633.7 647.6 678.15 692.05 719.85 733.75 761.55 786.55 811.55 825.45 864.35 892.2"
               y="0"
               sodipodi:role="line"
               id="tspan228">Structural and Computational Biology Uni</tspan></text>
</g><g
           id="g230"
           transform="matrix(0.24,0,0,0.24,330.8407,80.19993)"><text
             transform="scale(1,-1)"
             id="text232"><tspan
               style="fill:#000000;fill-opacity:1;fill-rule:nonzero;stroke:none;font-family:Optima;font-variant:normal;font-weight:normal;font-size:50;writing-mode:lr;-inkscape-font-specification:Optima-Regular"
               x="0"
               y="0"
               id="tspan234">t</tspan></text>
</g><g
           id="g236"
           transform="matrix(0.24,0,0,0.24,334.1767,80.19993)" /></g><text
         xml:space="preserve"
         style="font-size:32px;font-style:normal;font-variant:normal;font-weight:normal;font-stretch:normal;text-align:center;line-height:125%;letter-spacing:0px;word-spacing:0px;writing-mode:lr-tb;text-anchor:middle;fill:#000000;fill-opacity:1;stroke:none;font-family:Georgia;-inkscape-font-specification:Georgia"
         x="291.74411"
         y="-545.41907"
         id="text3429"
         sodipodi:linespacing="125%"
         transform="scale(1,-1)"><tspan
           sodipodi:role="line"
           id="tspan3431"
           x="291.74411"
           y="-545.41907">FIRSTNAME LASTNAME</tspan></text>
</g><g
       id="g238"><g
         id="g240"
         clip-path="url(#clipPath242)"><path
           d="m 249.1861,281.4225 c 0,1.9505 1.5858,3.5344 3.5431,3.5344 1.9553,0 3.543,-1.5839 3.543,-3.5344 0,-1.9506 -1.5877,-3.5344 -3.543,-3.5344 -1.9573,0 -3.5431,1.5838 -3.5431,3.5344"
           style="fill:#5db446;fill-opacity:1;fill-rule:nonzero;stroke:none"
           id="path246" /><path
           d="m 249.1861,271.9383 c 0,1.9506 1.5858,3.5344 3.5431,3.5344 1.9553,0 3.543,-1.5838 3.543,-3.5344 0,-1.9505 -1.5877,-3.5344 -3.543,-3.5344 -1.9573,0 -3.5431,1.5839 -3.5431,3.5344"
           style="fill:#5db446;fill-opacity:1;fill-rule:nonzero;stroke:none"
           id="path248" /><path
           d="m 249.1861,262.4549 c 0,1.9506 1.5858,3.5344 3.5431,3.5344 1.9553,0 3.543,-1.5838 3.543,-3.5344 0,-1.9505 -1.5877,-3.5344 -3.543,-3.5344 -1.9573,0 -3.5431,1.5839 -3.5431,3.5344"
           style="fill:#5db446;fill-opacity:1;fill-rule:nonzero;stroke:none"
           id="path250" /><path
           d="m 249.1861,252.9708 c 0,1.9505 1.5858,3.5344 3.5431,3.5344 1.9553,0 3.543,-1.5839 3.543,-3.5344 0,-1.9506 -1.5877,-3.5344 -3.543,-3.5344 -1.9573,0 -3.5431,1.5838 -3.5431,3.5344"
           style="fill:#5db446;fill-opacity:1;fill-rule:nonzero;stroke:none"
           id="path252" /><path
           d="m 249.1861,243.4876 c 0,1.9505 1.5858,3.5344 3.5431,3.5344 1.9553,0 3.543,-1.5839 3.543,-3.5344 0,-1.9525 -1.5877,-3.5344 -3.543,-3.5344 -1.9573,0 -3.5431,1.5819 -3.5431,3.5344"
           style="fill:#5db446;fill-opacity:1;fill-rule:nonzero;stroke:none"
           id="path254" /><path
           d="m 249.1861,234.0044 c 0,1.9506 1.5858,3.5324 3.5431,3.5324 1.9553,0 3.543,-1.5818 3.543,-3.5324 0,-1.9525 -1.5877,-3.5344 -3.543,-3.5344 -1.9573,0 -3.5431,1.5819 -3.5431,3.5344"
           style="fill:#5db446;fill-opacity:1;fill-rule:nonzero;stroke:none"
           id="path256" /><path
           d="m 249.1861,224.5203 c 0,1.9505 1.5858,3.5324 3.5431,3.5324 1.9553,0 3.543,-1.5819 3.543,-3.5324 0,-1.9525 -1.5877,-3.5344 -3.543,-3.5344 -1.9573,0 -3.5431,1.5819 -3.5431,3.5344"
           style="fill:#5db446;fill-opacity:1;fill-rule:nonzero;stroke:none"
           id="path258" /><path
           d="m 249.1861,215.0371 c 0,1.9505 1.5858,3.5324 3.5431,3.5324 1.9553,0 3.543,-1.5819 3.543,-3.5324 0,-1.9525 -1.5877,-3.5344 -3.543,-3.5344 -1.9573,0 -3.5431,1.5819 -3.5431,3.5344"
           style="fill:#5db446;fill-opacity:1;fill-rule:nonzero;stroke:none"
           id="path260" /><path
           d="m 249.1861,205.5529 c 0,1.9506 1.5858,3.5325 3.5431,3.5325 1.9553,0 3.543,-1.5819 3.543,-3.5325 0,-1.9525 -1.5877,-3.5344 -3.543,-3.5344 -1.9573,0 -3.5431,1.5819 -3.5431,3.5344"
           style="fill:#5db446;fill-opacity:1;fill-rule:nonzero;stroke:none"
           id="path262" /><path
           d="m 258.0099,276.6803 c 0,1.9506 1.5858,3.5344 3.5431,3.5344 1.9553,0 3.5411,-1.5838 3.5411,-3.5344 0,-1.9506 -1.5858,-3.5344 -3.5411,-3.5344 -1.9573,0 -3.5431,1.5838 -3.5431,3.5344"
           style="fill:#5db446;fill-opacity:1;fill-rule:nonzero;stroke:none"
           id="path264" /><path
           d="m 258.0099,267.1971 c 0,1.9506 1.5858,3.5344 3.5431,3.5344 1.9553,0 3.5411,-1.5838 3.5411,-3.5344 0,-1.9525 -1.5858,-3.5344 -3.5411,-3.5344 -1.9573,0 -3.5431,1.5819 -3.5431,3.5344"
           style="fill:#5db446;fill-opacity:1;fill-rule:nonzero;stroke:none"
           id="path266" /><path
           d="m 258.0099,257.713 c 0,1.9505 1.5858,3.5343 3.5431,3.5343 1.9553,0 3.5411,-1.5838 3.5411,-3.5343 0,-1.9506 -1.5858,-3.5344 -3.5411,-3.5344 -1.9573,0 -3.5431,1.5838 -3.5431,3.5344"
           style="fill:#5db446;fill-opacity:1;fill-rule:nonzero;stroke:none"
           id="path268" /><path
           d="m 258.0099,248.2298 c 0,1.9505 1.5858,3.5344 3.5431,3.5344 1.9553,0 3.5411,-1.5839 3.5411,-3.5344 0,-1.9506 -1.5858,-3.5344 -3.5411,-3.5344 -1.9573,0 -3.5431,1.5838 -3.5431,3.5344"
           style="fill:#5db446;fill-opacity:1;fill-rule:nonzero;stroke:none"
           id="path270" /><path
           d="m 258.0099,238.7456 c 0,1.9525 1.5858,3.5344 3.5431,3.5344 1.9553,0 3.5411,-1.5819 3.5411,-3.5344 0,-1.9505 -1.5858,-3.5344 -3.5411,-3.5344 -1.9573,0 -3.5431,1.5839 -3.5431,3.5344"
           style="fill:#5db446;fill-opacity:1;fill-rule:nonzero;stroke:none"
           id="path272" /><path
           d="m 258.0099,229.2615 c 0,1.9525 1.5858,3.5344 3.5431,3.5344 1.9553,0 3.5411,-1.5819 3.5411,-3.5344 0,-1.9506 -1.5858,-3.5344 -3.5411,-3.5344 -1.9573,0 -3.5431,1.5838 -3.5431,3.5344"
           style="fill:#5db446;fill-opacity:1;fill-rule:nonzero;stroke:none"
           id="path274" /><path
           d="m 258.0099,219.7781 c 0,1.9525 1.5858,3.5344 3.5431,3.5344 1.9553,0 3.5411,-1.5819 3.5411,-3.5344 0,-1.9506 -1.5858,-3.5344 -3.5411,-3.5344 -1.9573,0 -3.5431,1.5838 -3.5431,3.5344"
           style="fill:#5db446;fill-opacity:1;fill-rule:nonzero;stroke:none"
           id="path276" /><path
           d="m 258.0099,210.2939 c 0,1.9525 1.5858,3.5344 3.5431,3.5344 1.9553,0 3.5411,-1.5819 3.5411,-3.5344 0,-1.9505 -1.5858,-3.5344 -3.5411,-3.5344 -1.9573,0 -3.5431,1.5839 -3.5431,3.5344"
           style="fill:#5db446;fill-opacity:1;fill-rule:nonzero;stroke:none"
           id="path278" /><path
           d="m 266.3658,271.9383 c 0,1.9506 1.5878,3.5344 3.5431,3.5344 1.9573,0 3.5431,-1.5838 3.5431,-3.5344 0,-1.9505 -1.5858,-3.5344 -3.5431,-3.5344 -1.9553,0 -3.5431,1.5839 -3.5431,3.5344"
           style="fill:#5db446;fill-opacity:1;fill-rule:nonzero;stroke:none"
           id="path280" /><path
           d="m 266.3658,262.4549 c 0,1.9506 1.5878,3.5344 3.5431,3.5344 1.9573,0 3.5431,-1.5838 3.5431,-3.5344 0,-1.9505 -1.5858,-3.5344 -3.5431,-3.5344 -1.9553,0 -3.5431,1.5839 -3.5431,3.5344"
           style="fill:#5db446;fill-opacity:1;fill-rule:nonzero;stroke:none"
           id="path282" /><path
           d="m 266.3658,252.9708 c 0,1.9505 1.5878,3.5344 3.5431,3.5344 1.9573,0 3.5431,-1.5839 3.5431,-3.5344 0,-1.9506 -1.5858,-3.5344 -3.5431,-3.5344 -1.9553,0 -3.5431,1.5838 -3.5431,3.5344"
           style="fill:#5db446;fill-opacity:1;fill-rule:nonzero;stroke:none"
           id="path284" /><path
           d="m 266.3658,243.4876 c 0,1.9505 1.5878,3.5344 3.5431,3.5344 1.9573,0 3.5431,-1.5839 3.5431,-3.5344 0,-1.9525 -1.5858,-3.5344 -3.5431,-3.5344 -1.9553,0 -3.5431,1.5819 -3.5431,3.5344"
           style="fill:#5db446;fill-opacity:1;fill-rule:nonzero;stroke:none"
           id="path286" /><path
           d="m 266.3658,234.0044 c 0,1.9506 1.5878,3.5324 3.5431,3.5324 1.9573,0 3.5431,-1.5818 3.5431,-3.5324 0,-1.9525 -1.5858,-3.5344 -3.5431,-3.5344 -1.9553,0 -3.5431,1.5819 -3.5431,3.5344"
           style="fill:#5db446;fill-opacity:1;fill-rule:nonzero;stroke:none"
           id="path288" /><path
           d="m 266.3658,224.5203 c 0,1.9505 1.5878,3.5324 3.5431,3.5324 1.9573,0 3.5431,-1.5819 3.5431,-3.5324 0,-1.9525 -1.5858,-3.5344 -3.5431,-3.5344 -1.9553,0 -3.5431,1.5819 -3.5431,3.5344"
           style="fill:#5db446;fill-opacity:1;fill-rule:nonzero;stroke:none"
           id="path290" /><path
           d="m 266.3658,215.0371 c 0,1.9505 1.5878,3.5324 3.5431,3.5324 1.9573,0 3.5431,-1.5819 3.5431,-3.5324 0,-1.9525 -1.5858,-3.5344 -3.5431,-3.5344 -1.9553,0 -3.5431,1.5819 -3.5431,3.5344"
           style="fill:#5db446;fill-opacity:1;fill-rule:nonzero;stroke:none"
           id="path292" /><path
           d="m 274.8307,267.1971 c 0,1.9506 1.5877,3.5344 3.543,3.5344 1.9554,0 3.5412,-1.5838 3.5412,-3.5344 0,-1.9525 -1.5858,-3.5344 -3.5412,-3.5344 -1.9553,0 -3.543,1.5819 -3.543,3.5344"
           style="fill:#5db446;fill-opacity:1;fill-rule:nonzero;stroke:none"
           id="path294" /><path
           d="m 274.8307,257.713 c 0,1.9505 1.5877,3.5343 3.543,3.5343 1.9554,0 3.5412,-1.5838 3.5412,-3.5343 0,-1.9506 -1.5858,-3.5344 -3.5412,-3.5344 -1.9553,0 -3.543,1.5838 -3.543,3.5344"
           style="fill:#5db446;fill-opacity:1;fill-rule:nonzero;stroke:none"
           id="path296" /><path
           d="m 274.8307,248.2298 c 0,1.9505 1.5877,3.5344 3.543,3.5344 1.9554,0 3.5412,-1.5839 3.5412,-3.5344 0,-1.9506 -1.5858,-3.5344 -3.5412,-3.5344 -1.9553,0 -3.543,1.5838 -3.543,3.5344"
           style="fill:#5db446;fill-opacity:1;fill-rule:nonzero;stroke:none"
           id="path298" /><path
           d="m 274.8307,238.7456 c 0,1.9525 1.5877,3.5344 3.543,3.5344 1.9554,0 3.5412,-1.5819 3.5412,-3.5344 0,-1.9505 -1.5858,-3.5344 -3.5412,-3.5344 -1.9553,0 -3.543,1.5839 -3.543,3.5344"
           style="fill:#5db446;fill-opacity:1;fill-rule:nonzero;stroke:none"
           id="path300" /><path
           d="m 274.8307,229.2615 c 0,1.9525 1.5877,3.5344 3.543,3.5344 1.9554,0 3.5412,-1.5819 3.5412,-3.5344 0,-1.9506 -1.5858,-3.5344 -3.5412,-3.5344 -1.9553,0 -3.543,1.5838 -3.543,3.5344"
           style="fill:#5db446;fill-opacity:1;fill-rule:nonzero;stroke:none"
           id="path302" /><path
           d="m 274.8307,219.7781 c 0,1.9525 1.5877,3.5344 3.543,3.5344 1.9554,0 3.5412,-1.5819 3.5412,-3.5344 0,-1.9506 -1.5858,-3.5344 -3.5412,-3.5344 -1.9553,0 -3.543,1.5838 -3.543,3.5344"
           style="fill:#5db446;fill-opacity:1;fill-rule:nonzero;stroke:none"
           id="path304" /><path
           d="m 283.3223,262.4549 c 0,1.9506 1.5858,3.5344 3.543,3.5344 1.9553,0 3.5431,-1.5838 3.5431,-3.5344 0,-1.9505 -1.5878,-3.5344 -3.5431,-3.5344 -1.9572,0 -3.543,1.5839 -3.543,3.5344"
           style="fill:#5db446;fill-opacity:1;fill-rule:nonzero;stroke:none"
           id="path306" /><path
           d="m 283.3223,252.9708 c 0,1.9505 1.5858,3.5344 3.543,3.5344 1.9553,0 3.5431,-1.5839 3.5431,-3.5344 0,-1.9506 -1.5878,-3.5344 -3.5431,-3.5344 -1.9572,0 -3.543,1.5838 -3.543,3.5344"
           style="fill:#5db446;fill-opacity:1;fill-rule:nonzero;stroke:none"
           id="path308" /><path
           d="m 283.3223,243.4876 c 0,1.9505 1.5858,3.5344 3.543,3.5344 1.9553,0 3.5431,-1.5839 3.5431,-3.5344 0,-1.9525 -1.5878,-3.5344 -3.5431,-3.5344 -1.9572,0 -3.543,1.5819 -3.543,3.5344"
           style="fill:#5db446;fill-opacity:1;fill-rule:nonzero;stroke:none"
           id="path310" /><path
           d="m 283.3223,234.0044 c 0,1.9506 1.5858,3.5324 3.543,3.5324 1.9553,0 3.5431,-1.5818 3.5431,-3.5324 0,-1.9525 -1.5878,-3.5344 -3.5431,-3.5344 -1.9572,0 -3.543,1.5819 -3.543,3.5344"
           style="fill:#5db446;fill-opacity:1;fill-rule:nonzero;stroke:none"
           id="path312" /><path
           d="m 283.3223,224.5203 c 0,1.9505 1.5858,3.5324 3.543,3.5324 1.9553,0 3.5431,-1.5819 3.5431,-3.5324 0,-1.9525 -1.5878,-3.5344 -3.5431,-3.5344 -1.9572,0 -3.543,1.5819 -3.543,3.5344"
           style="fill:#5db446;fill-opacity:1;fill-rule:nonzero;stroke:none"
           id="path314" /><path
           d="m 240.937,276.6803 c 0,1.9506 1.5858,3.5344 3.543,3.5344 1.9554,0 3.5411,-1.5838 3.5411,-3.5344 0,-1.9506 -1.5857,-3.5344 -3.5411,-3.5344 -1.9572,0 -3.543,1.5838 -3.543,3.5344"
           style="fill:#5db446;fill-opacity:1;fill-rule:nonzero;stroke:none"
           id="path316" /><path
           d="m 240.937,267.1971 c 0,1.9506 1.5858,3.5344 3.543,3.5344 1.9554,0 3.5411,-1.5838 3.5411,-3.5344 0,-1.9525 -1.5857,-3.5344 -3.5411,-3.5344 -1.9572,0 -3.543,1.5819 -3.543,3.5344"
           style="fill:#5db446;fill-opacity:1;fill-rule:nonzero;stroke:none"
           id="path318" /><path
           d="m 240.937,257.713 c 0,1.9505 1.5858,3.5343 3.543,3.5343 1.9554,0 3.5411,-1.5838 3.5411,-3.5343 0,-1.9506 -1.5857,-3.5344 -3.5411,-3.5344 -1.9572,0 -3.543,1.5838 -3.543,3.5344"
           style="fill:#5db446;fill-opacity:1;fill-rule:nonzero;stroke:none"
           id="path320" /><path
           d="m 240.937,248.2298 c 0,1.9505 1.5858,3.5344 3.543,3.5344 1.9554,0 3.5411,-1.5839 3.5411,-3.5344 0,-1.9506 -1.5857,-3.5344 -3.5411,-3.5344 -1.9572,0 -3.543,1.5838 -3.543,3.5344"
           style="fill:#5db446;fill-opacity:1;fill-rule:nonzero;stroke:none"
           id="path322" /><path
           d="m 240.937,238.7456 c 0,1.9525 1.5858,3.5344 3.543,3.5344 1.9554,0 3.5411,-1.5819 3.5411,-3.5344 0,-1.9505 -1.5857,-3.5344 -3.5411,-3.5344 -1.9572,0 -3.543,1.5839 -3.543,3.5344"
           style="fill:#5db446;fill-opacity:1;fill-rule:nonzero;stroke:none"
           id="path324" /><path
           d="m 240.937,229.2615 c 0,1.9525 1.5858,3.5344 3.543,3.5344 1.9554,0 3.5411,-1.5819 3.5411,-3.5344 0,-1.9506 -1.5857,-3.5344 -3.5411,-3.5344 -1.9572,0 -3.543,1.5838 -3.543,3.5344"
           style="fill:#5db446;fill-opacity:1;fill-rule:nonzero;stroke:none"
           id="path326" /><path
           d="m 240.937,219.7781 c 0,1.9525 1.5858,3.5344 3.543,3.5344 1.9554,0 3.5411,-1.5819 3.5411,-3.5344 0,-1.9506 -1.5857,-3.5344 -3.5411,-3.5344 -1.9572,0 -3.543,1.5838 -3.543,3.5344"
           style="fill:#5db446;fill-opacity:1;fill-rule:nonzero;stroke:none"
           id="path328" /><path
           d="m 240.937,210.2939 c 0,1.9525 1.5858,3.5344 3.543,3.5344 1.9554,0 3.5411,-1.5819 3.5411,-3.5344 0,-1.9505 -1.5857,-3.5344 -3.5411,-3.5344 -1.9572,0 -3.543,1.5839 -3.543,3.5344"
           style="fill:#5db446;fill-opacity:1;fill-rule:nonzero;stroke:none"
           id="path330" /><path
           d="m 232.5437,271.9383 c 0,1.9506 1.5858,3.5344 3.5431,3.5344 1.9553,0 3.5411,-1.5838 3.5411,-3.5344 0,-1.9505 -1.5858,-3.5344 -3.5411,-3.5344 -1.9573,0 -3.5431,1.5839 -3.5431,3.5344"
           style="fill:#5db446;fill-opacity:1;fill-rule:nonzero;stroke:none"
           id="path332" /><path
           d="m 232.5437,262.4549 c 0,1.9506 1.5858,3.5344 3.5431,3.5344 1.9553,0 3.5411,-1.5838 3.5411,-3.5344 0,-1.9505 -1.5858,-3.5344 -3.5411,-3.5344 -1.9573,0 -3.5431,1.5839 -3.5431,3.5344"
           style="fill:#5db446;fill-opacity:1;fill-rule:nonzero;stroke:none"
           id="path334" /><path
           d="m 232.5437,252.9708 c 0,1.9505 1.5858,3.5344 3.5431,3.5344 1.9553,0 3.5411,-1.5839 3.5411,-3.5344 0,-1.9506 -1.5858,-3.5344 -3.5411,-3.5344 -1.9573,0 -3.5431,1.5838 -3.5431,3.5344"
           style="fill:#5db446;fill-opacity:1;fill-rule:nonzero;stroke:none"
           id="path336" /><path
           d="m 232.5437,243.4876 c 0,1.9505 1.5858,3.5344 3.5431,3.5344 1.9553,0 3.5411,-1.5839 3.5411,-3.5344 0,-1.9525 -1.5858,-3.5344 -3.5411,-3.5344 -1.9573,0 -3.5431,1.5819 -3.5431,3.5344"
           style="fill:#5db446;fill-opacity:1;fill-rule:nonzero;stroke:none"
           id="path338" /><path
           d="m 232.5437,234.0044 c 0,1.9506 1.5858,3.5324 3.5431,3.5324 1.9553,0 3.5411,-1.5818 3.5411,-3.5324 0,-1.9525 -1.5858,-3.5344 -3.5411,-3.5344 -1.9573,0 -3.5431,1.5819 -3.5431,3.5344"
           style="fill:#e3182c;fill-opacity:1;fill-rule:nonzero;stroke:none"
           id="path340" /><path
           d="m 232.5437,224.5203 c 0,1.9505 1.5858,3.5324 3.5431,3.5324 1.9553,0 3.5411,-1.5819 3.5411,-3.5324 0,-1.9525 -1.5858,-3.5344 -3.5411,-3.5344 -1.9573,0 -3.5431,1.5819 -3.5431,3.5344"
           style="fill:#5db446;fill-opacity:1;fill-rule:nonzero;stroke:none"
           id="path342" /><path
           d="m 232.5437,215.0371 c 0,1.9505 1.5858,3.5324 3.5431,3.5324 1.9553,0 3.5411,-1.5819 3.5411,-3.5324 0,-1.9525 -1.5858,-3.5344 -3.5411,-3.5344 -1.9573,0 -3.5431,1.5819 -3.5431,3.5344"
           style="fill:#5db446;fill-opacity:1;fill-rule:nonzero;stroke:none"
           id="path344" /><path
           d="m 223.9719,267.1971 c 0,1.9506 1.5858,3.5344 3.5431,3.5344 1.9553,0 3.5411,-1.5838 3.5411,-3.5344 0,-1.9525 -1.5858,-3.5344 -3.5411,-3.5344 -1.9573,0 -3.5431,1.5819 -3.5431,3.5344"
           style="fill:#5db446;fill-opacity:1;fill-rule:nonzero;stroke:none"
           id="path346" /><path
           d="m 223.9719,257.713 c 0,1.9505 1.5858,3.5343 3.5431,3.5343 1.9553,0 3.5411,-1.5838 3.5411,-3.5343 0,-1.9506 -1.5858,-3.5344 -3.5411,-3.5344 -1.9573,0 -3.5431,1.5838 -3.5431,3.5344"
           style="fill:#5db446;fill-opacity:1;fill-rule:nonzero;stroke:none"
           id="path348" /><path
           d="m 223.9719,248.2298 c 0,1.9505 1.5858,3.5344 3.5431,3.5344 1.9553,0 3.5411,-1.5839 3.5411,-3.5344 0,-1.9506 -1.5858,-3.5344 -3.5411,-3.5344 -1.9573,0 -3.5431,1.5838 -3.5431,3.5344"
           style="fill:#5db446;fill-opacity:1;fill-rule:nonzero;stroke:none"
           id="path350" /><path
           d="m 223.9719,238.7456 c 0,1.9525 1.5858,3.5344 3.5431,3.5344 1.9553,0 3.5411,-1.5819 3.5411,-3.5344 0,-1.9505 -1.5858,-3.5344 -3.5411,-3.5344 -1.9573,0 -3.5431,1.5839 -3.5431,3.5344"
           style="fill:#5db446;fill-opacity:1;fill-rule:nonzero;stroke:none"
           id="path352" /><path
           d="m 223.9719,229.2615 c 0,1.9525 1.5858,3.5344 3.5431,3.5344 1.9553,0 3.5411,-1.5819 3.5411,-3.5344 0,-1.9506 -1.5858,-3.5344 -3.5411,-3.5344 -1.9573,0 -3.5431,1.5838 -3.5431,3.5344"
           style="fill:#5db446;fill-opacity:1;fill-rule:nonzero;stroke:none"
           id="path354" /><path
           d="m 223.9719,219.7781 c 0,1.9525 1.5858,3.5344 3.5431,3.5344 1.9553,0 3.5411,-1.5819 3.5411,-3.5344 0,-1.9506 -1.5858,-3.5344 -3.5411,-3.5344 -1.9573,0 -3.5431,1.5838 -3.5431,3.5344"
           style="fill:#5db446;fill-opacity:1;fill-rule:nonzero;stroke:none"
           id="path356" /><path
           d="m 215.68,262.4549 c 0,1.9506 1.5857,3.5344 3.543,3.5344 1.9553,0 3.5411,-1.5838 3.5411,-3.5344 0,-1.9505 -1.5858,-3.5344 -3.5411,-3.5344 -1.9573,0 -3.543,1.5839 -3.543,3.5344"
           style="fill:#5db446;fill-opacity:1;fill-rule:nonzero;stroke:none"
           id="path358" /><path
           d="m 215.68,252.9708 c 0,1.9505 1.5857,3.5344 3.543,3.5344 1.9553,0 3.5411,-1.5839 3.5411,-3.5344 0,-1.9506 -1.5858,-3.5344 -3.5411,-3.5344 -1.9573,0 -3.543,1.5838 -3.543,3.5344"
           style="fill:#5db446;fill-opacity:1;fill-rule:nonzero;stroke:none"
           id="path360" /><path
           d="m 215.68,243.4876 c 0,1.9505 1.5857,3.5344 3.543,3.5344 1.9553,0 3.5411,-1.5839 3.5411,-3.5344 0,-1.9525 -1.5858,-3.5344 -3.5411,-3.5344 -1.9573,0 -3.543,1.5819 -3.543,3.5344"
           style="fill:#5db446;fill-opacity:1;fill-rule:nonzero;stroke:none"
           id="path362" /><path
           d="m 215.68,234.0044 c 0,1.9506 1.5857,3.5324 3.543,3.5324 1.9553,0 3.5411,-1.5818 3.5411,-3.5324 0,-1.9525 -1.5858,-3.5344 -3.5411,-3.5344 -1.9573,0 -3.543,1.5819 -3.543,3.5344"
           style="fill:#5db446;fill-opacity:1;fill-rule:nonzero;stroke:none"
           id="path364" /><path
           d="m 215.68,224.5203 c 0,1.9505 1.5857,3.5324 3.543,3.5324 1.9553,0 3.5411,-1.5819 3.5411,-3.5324 0,-1.9525 -1.5858,-3.5344 -3.5411,-3.5344 -1.9573,0 -3.543,1.5819 -3.543,3.5344"
           style="fill:#5db446;fill-opacity:1;fill-rule:nonzero;stroke:none"
           id="path366" /><path
           d="m 118.2181,232.8273 -17.1365,0 0,9.4757 15.5527,0 0,3.3959 -15.5527,0 0,8.6859 16.8588,0 0,3.3939 -20.69911,0 0,-28.3473 20.97681,0 0,3.3959 z"
           style="fill:#231f20;fill-opacity:1;fill-rule:nonzero;stroke:none"
           id="path368" /><path
           d="m 150.3903,229.4319 0,28.3474 -5.4612,0 -8.0736,-23.9645 -0.0782,0 -8.1146,23.9645 -5.5004,0 0,-28.3474 3.721,0 0,16.7397 c 0,0.8289 -0.0802,4.4219 -0.0802,7.0278 l 0.0802,0 7.9934,-23.7675 3.7992,0 7.9954,23.8065 0.0782,0 c 0,-2.6449 -0.0782,-6.2379 -0.0782,-7.0668 l 0,-16.7397 3.719,0 z"
           style="fill:#231f20;fill-opacity:1;fill-rule:nonzero;stroke:none"
           id="path370" /><path
           d="m 160.4399,242.658 7.5593,0 c 3.1266,0 6.6482,-0.7899 6.6482,-4.7769 0,-3.1598 -2.0179,-5.1728 -6.0146,-5.1728 l -8.1929,0 0,9.9497 z m -3.8383,-13.2266 12.2286,0 c 6.2923,0 9.6555,3.8308 9.6555,8.3717 0,4.8549 -3.283,6.1579 -5.1445,6.9069 3.1266,1.461 3.8012,4.0669 3.8012,5.9219 0,3.8699 -2.7316,7.1468 -8.0364,7.1468 l -12.5044,0 0,-28.3473 z m 3.8383,25.0704 6.9649,0 c 4.2744,0 5.8973,-1.5 5.8973,-4.1449 0,-3.474 -2.2565,-4.5799 -5.9364,-4.5799 l -6.9258,0 0,8.7248 z"
           style="fill:#231f20;fill-opacity:1;fill-rule:evenodd;stroke:none"
           id="path372" /><path
           d="m 186.9525,257.7787 -3.8384,0 0,-28.3473 18.2452,0 0,3.3959 -14.4068,0 0,24.9514 z"
           style="fill:#231f20;fill-opacity:1;fill-rule:nonzero;stroke:none"
           id="path374" /><path
           d="m 312.762,234.2978 6.6363,0 0,-0.6788 -2.9193,0 0,-7.6735 -0.7977,0 0,7.6735 -2.9193,0 0,0.6788 z"
           style="fill:#231f20;fill-opacity:1;fill-rule:nonzero;stroke:none"
           id="path376" /><path
           d="m 320.0354,234.2978 0.7371,0 0,-3.3569 0.0254,0 c 0.2816,0.7256 1.0774,1.2152 1.9339,1.2152 1.7011,0 2.2154,-0.8875 2.2154,-2.327 l 0,-3.8836 -0.7372,0 0,3.7665 c 0,1.0299 -0.3402,1.8238 -1.5369,1.8238 -1.1849,0 -1.8634,-0.8875 -1.9006,-2.0695 l 0,-3.5208 -0.7371,0 0,8.3523 z"
           style="fill:#231f20;fill-opacity:1;fill-rule:nonzero;stroke:none"
           id="path378" /><path
           d="m 330.696,229.3851 c -0.0351,1.1099 -0.7371,2.1515 -1.922,2.1515 -1.2202,0 -1.8654,-1.0533 -1.9945,-2.1515 l 3.9165,0 z m -3.9165,-0.6202 c 0,-1.0767 0.5866,-2.3739 1.9945,-2.3739 1.0773,0 1.6639,0.6203 1.8986,1.5429 l 0.7391,0 c -0.3168,-1.3673 -1.1028,-2.1631 -2.6377,-2.1631 -1.9241,0 -2.7316,1.4726 -2.7316,3.193 0,1.5917 0.8075,3.1931 2.7316,3.1931 1.9338,0 2.7198,-1.6951 2.6612,-3.392 l -4.6557,0 z"
           style="fill:#231f20;fill-opacity:1;fill-rule:nonzero;stroke:none"
           id="path380" /><path
           d="m 336.6336,230.2034 2.7433,0 c 1.1146,0 1.8654,0.55 1.8654,1.7067 0,1.1586 -0.7508,1.7087 -1.8654,1.7087 l -2.7433,0 0,-3.4154 z m -0.7978,4.0942 3.7171,0 c 1.5017,0 2.4872,-0.8778 2.4872,-2.3875 0,-1.5078 -0.9855,-2.3855 -2.4872,-2.3855 l -2.9193,0 0,-3.5793 -0.7978,0 0,8.3523 z"
           style="fill:#231f20;fill-opacity:1;fill-rule:nonzero;stroke:none"
           id="path382" /><path
           d="m 343.5203,228.9642 c 0,-1.2757 0.7156,-2.5728 2.1215,-2.5728 1.4079,0 2.1235,1.2971 2.1235,2.5728 0,1.2737 -0.7156,2.5728 -2.1235,2.5728 -1.4059,0 -2.1215,-1.2991 -2.1215,-2.5728 m 4.9841,0 c 0,-1.7321 -1.0206,-3.1931 -2.8626,-3.1931 -1.84,0 -2.8587,1.461 -2.8587,3.1931 0,1.7301 1.0187,3.1931 2.8587,3.1931 1.842,0 2.8626,-1.463 2.8626,-3.1931"
           style="fill:#231f20;fill-opacity:1;fill-rule:nonzero;stroke:none"
           id="path384" /><path
           d="m 349.6096,231.9815 0.6804,0 0,-1.4161 0.0235,0 c 0.3754,0.9831 1.1947,1.5448 2.2858,1.498 l 0,-0.7373 c -1.3355,0.0585 -2.2506,-0.8992 -2.2506,-2.1631 l 0,-3.2165 -0.7391,0 0,6.035 z"
           style="fill:#231f20;fill-opacity:1;fill-rule:nonzero;stroke:none"
           id="path386" /><path
           d="m 354.478,231.9815 1.2318,0 0,-0.6203 -1.2318,0 0,-4.0708 c 0,-0.4779 0.0704,-0.7587 0.5983,-0.7958 0.2112,0 0.4204,0.0137 0.6335,0.0371 l 0,-0.632 c -0.2229,0 -0.4341,-0.0234 -0.657,-0.0234 -0.9854,0 -1.3257,0.3277 -1.3139,1.3556 l 0,4.1293 -1.054,0 0,0.6203 1.054,0 0,1.814 0.7391,0 0,-1.814 z"
           style="fill:#231f20;fill-opacity:1;fill-rule:nonzero;stroke:none"
           id="path388" /><path
           d="m 360.6476,229.2443 -0.0235,0 c -0.0938,-0.1756 -0.4223,-0.2341 -0.6218,-0.2692 -1.2553,-0.2204 -2.8137,-0.2204 -2.8137,-1.3927 0,-0.7353 0.6453,-1.1918 1.3473,-1.1918 1.138,0 2.1117,0.7139 2.1117,1.894 l 0,0.9597 z m -3.94,0.8894 c 0.0821,1.4161 1.0539,2.0228 2.4501,2.0228 1.0676,0 2.2271,-0.3141 2.2271,-1.9408 l 0,-3.2048 c 0,-0.2926 0.1427,-0.4447 0.436,-0.4447 0.0821,0 0.1506,0.0117 0.2327,0.0468 l 0,-0.6203 c -0.176,-0.0351 -0.2796,-0.0468 -0.4791,-0.0468 -0.7508,0 -0.8681,0.433 -0.8681,1.0533 l -0.0235,0 c -0.5279,-0.7841 -1.0324,-1.2288 -2.2036,-1.2288 -1.1263,0 -2.0297,0.55 -2.0297,1.7672 0,1.6833 1.6542,1.7535 3.2478,1.9408 0.6101,0.0585 0.9503,0.1638 0.9503,0.8192 0,0.9948 -0.7039,1.2386 -1.5838,1.2386 -0.9249,0 -1.5819,-0.4213 -1.6171,-1.4025 l -0.7391,0 z"
           style="fill:#231f20;fill-opacity:1;fill-rule:nonzero;stroke:none"
           id="path390" /><path
           d="m 362.8781,225.9449 0.73914,0 0,8.35225 -0.73914,0 0,-8.35225 z"
           style="fill:#231f20;fill-opacity:1;fill-rule:nonzero;stroke:none"
           id="path392" /><path
           d="m 370.6303,231.3614 -1.1947,0 0,-5.4147 -0.7391,0 0,5.4147 -1.0324,0 0,0.6203 1.0324,0 0,0.5501 c 0,1.0396 0.2679,1.7652 1.4665,1.7652 0.221,0 0.3852,-0.01 0.6199,-0.0468 l 0,-0.632 c -0.1975,0.0351 -0.3618,0.0585 -0.5378,0.0585 -0.8095,0 -0.8095,-0.5266 -0.8095,-1.1684 l 0,-0.5266 1.1947,0 0,-0.6203 z"
           style="fill:#231f20;fill-opacity:1;fill-rule:nonzero;stroke:none"
           id="path394" /><path
           d="m 371.7703,228.9642 c 0,-1.2757 0.7137,-2.5728 2.1215,-2.5728 1.4079,0 2.1235,1.2971 2.1235,2.5728 0,1.2737 -0.7156,2.5728 -2.1235,2.5728 -1.4078,0 -2.1215,-1.2991 -2.1215,-2.5728 m 4.9802,0 c 0,-1.7321 -1.0187,-3.1931 -2.8587,-3.1931 -1.84,0 -2.8606,1.461 -2.8606,3.1931 0,1.7301 1.0206,3.1931 2.8606,3.1931 1.84,0 2.8587,-1.463 2.8587,-3.1931"
           style="fill:#231f20;fill-opacity:1;fill-rule:nonzero;stroke:none"
           id="path396" /><path
           d="m 377.8578,231.9815 0.6805,0 0,-1.4161 0.0215,0 c 0.3754,0.9831 1.1967,1.5448 2.2878,1.498 l 0,-0.7373 c -1.3355,0.0585 -2.2526,-0.8992 -2.2526,-2.1631 l 0,-3.2165 -0.7372,0 0,6.035 z"
           style="fill:#231f20;fill-opacity:1;fill-rule:nonzero;stroke:none"
           id="path398" /><path
           d="m 391.0755,231.771 c -0.2835,1.2874 -1.3473,2.0247 -2.5654,2.0247 -2.2193,0 -3.1559,-1.8491 -3.1559,-3.6748 0,-1.8238 0.9366,-3.6729 3.1559,-3.6729 1.5466,0 2.5302,1.1937 2.6846,2.6801 l 0.7939,0 c -0.2209,-2.0598 -1.5232,-3.357 -3.4785,-3.357 -2.6397,0 -3.9537,2.0579 -3.9537,4.3498 0,2.2938 1.314,4.3516 3.9537,4.3516 1.5916,0 3.1383,-0.9577 3.3631,-2.7015 l -0.7977,0 z"
           style="fill:#231f20;fill-opacity:1;fill-rule:nonzero;stroke:none"
           id="path400" /><path
           d="m 393.5081,228.9642 c 0,-1.2757 0.7137,-2.5728 2.1196,-2.5728 1.4098,0 2.1235,1.2971 2.1235,2.5728 0,1.2737 -0.7137,2.5728 -2.1235,2.5728 -1.4059,0 -2.1196,-1.2991 -2.1196,-2.5728 m 4.9802,0 c 0,-1.7321 -1.0206,-3.1931 -2.8606,-3.1931 -1.84,0 -2.8606,1.461 -2.8606,3.1931 0,1.7301 1.0206,3.1931 2.8606,3.1931 1.84,0 2.8606,-1.463 2.8606,-3.1931"
           style="fill:#231f20;fill-opacity:1;fill-rule:nonzero;stroke:none"
           id="path402" /><path
           d="m 399.5956,231.9815 0.6805,0 0,-1.0162 0.0332,0 c 0.3892,0.7353 1.009,1.1918 1.9828,1.1918 0.7977,0 1.5114,-0.3863 1.7382,-1.1821 0.3618,0.7958 1.1224,1.1821 1.9202,1.1821 1.3374,0 2.0042,-0.7022 2.0042,-2.1183 l 0,-4.0923 -0.7372,0 0,4.0591 c 0,0.9948 -0.3656,1.5312 -1.4313,1.5312 -1.2788,0 -1.6425,-1.0533 -1.6425,-2.1749 l 0,-3.4154 -0.7371,0 0,4.0923 c 0,0.8192 -0.3168,1.498 -1.2671,1.498 -1.2651,0 -1.8067,-0.9597 -1.8067,-2.2217 l 0,-3.3686 -0.7372,0 0,6.035 z"
           style="fill:#231f20;fill-opacity:1;fill-rule:nonzero;stroke:none"
           id="path404" /><path
           d="m 412.229,231.5368 c -1.6425,0 -2.1234,-1.2055 -2.1234,-2.5728 0,-1.2523 0.565,-2.5728 2.1234,-2.5728 1.4098,0 1.9827,1.3205 1.9827,2.5728 0,1.2522 -0.5729,2.5728 -1.9827,2.5728 m -2.8606,0.4447 0.6804,0 0,-1.145 0.0215,0 c 0.3403,0.829 1.1733,1.3205 2.1587,1.3205 1.84,0 2.7199,-1.4726 2.7199,-3.193 0,-1.7204 -0.8799,-3.193 -2.7199,-3.193 -0.8896,0 -1.7832,0.4427 -2.0961,1.3224 l -0.0273,0 0,-3.3822 -0.7372,0 0,8.2703 z"
           style="fill:#231f20;fill-opacity:1;fill-rule:nonzero;stroke:none"
           id="path406" /><path
           d="m 421.0049,225.9461 -0.6804,0 0,1.0884 -0.0215,0 c -0.3911,-0.8075 -1.185,-1.2639 -2.0903,-1.2639 -1.5349,0 -2.1235,0.8777 -2.1235,2.2919 l 0,3.9186 0.7411,0 0,-3.9284 c 0.0352,-1.0904 0.4439,-1.6619 1.619,-1.6619 1.2651,0 1.8146,1.1918 1.8146,2.4207 l 0,3.1696 0.741,0 0,-6.035 z"
           style="fill:#231f20;fill-opacity:1;fill-rule:nonzero;stroke:none"
           id="path408" /><path
           d="m 423.5752,231.9815 1.2299,0 0,-0.6203 -1.2299,0 0,-4.0708 c 0,-0.4779 0.0685,-0.7587 0.6003,-0.7958 0.2092,0 0.4185,0.0137 0.6296,0.0371 l 0,-0.632 c -0.2209,0 -0.4321,-0.0234 -0.657,-0.0234 -0.9815,0 -1.3257,0.3277 -1.31,1.3556 l 0,4.1293 -1.0579,0 0,0.6203 1.0579,0 0,1.814 0.7371,0 0,-1.814 z"
           style="fill:#231f20;fill-opacity:1;fill-rule:nonzero;stroke:none"
           id="path410" /><path
           d="m 429.7466,229.2443 -0.0234,0 c -0.0958,-0.1756 -0.4243,-0.2341 -0.6218,-0.2692 -1.2573,-0.2204 -2.8157,-0.2204 -2.8157,-1.3927 0,-0.7353 0.6472,-1.1918 1.3492,-1.1918 1.138,0 2.1117,0.7139 2.1117,1.894 l 0,0.9597 z m -3.9419,0.8894 c 0.0841,1.4161 1.0539,2.0228 2.452,2.0228 1.0656,0 2.2271,-0.3141 2.2271,-1.9408 l 0,-3.2048 c 0,-0.2926 0.1408,-0.4447 0.436,-0.4447 0.0802,0 0.1526,0.0117 0.2327,0.0468 l 0,-0.6203 c -0.176,-0.0351 -0.2835,-0.0468 -0.481,-0.0468 -0.7489,0 -0.8682,0.433 -0.8682,1.0533 l -0.0215,0 c -0.5279,-0.7841 -1.0324,-1.2288 -2.2036,-1.2288 -1.1282,0 -2.0316,0.55 -2.0316,1.7672 0,1.6833 1.6523,1.7535 3.2498,1.9408 0.61,0.0585 0.9502,0.1638 0.9502,0.8192 0,0.9948 -0.7058,1.2386 -1.5857,1.2386 -0.923,0 -1.5799,-0.4213 -1.619,-1.4025 l -0.7372,0 z"
           style="fill:#231f20;fill-opacity:1;fill-rule:nonzero;stroke:none"
           id="path412" /><path
           d="m 433.138,231.9815 1.2299,0 0,-0.6203 -1.2299,0 0,-4.0708 c 0,-0.4779 0.0684,-0.7587 0.6003,-0.7958 0.2092,0 0.4184,0.0137 0.6296,0.0371 l 0,-0.632 c -0.221,0 -0.4322,-0.0234 -0.657,-0.0234 -0.9816,0 -1.3257,0.3277 -1.3101,1.3556 l 0,4.1293 -1.0578,0 0,0.6203 1.0578,0 0,1.814 0.7372,0 0,-1.814 z"
           style="fill:#231f20;fill-opacity:1;fill-rule:nonzero;stroke:none"
           id="path414" /><path
           d="m 435.4521,231.9819 0.7372,0 0,-6.035 -0.7372,0 0,6.035 z m 0,2.3153 0.7372,0 0,-1.182 -0.7372,0 0,1.182 z"
           style="fill:#231f20;fill-opacity:1;fill-rule:nonzero;stroke:none"
           id="path416" /><path
           d="m 438.0454,228.9642 c 0,-1.2757 0.7137,-2.5728 2.1196,-2.5728 1.4098,0 2.1235,1.2971 2.1235,2.5728 0,1.2737 -0.7137,2.5728 -2.1235,2.5728 -1.4059,0 -2.1196,-1.2991 -2.1196,-2.5728 m 4.9803,0 c 0,-1.7321 -1.0207,-3.1931 -2.8607,-3.1931 -1.84,0 -2.8606,1.461 -2.8606,3.1931 0,1.7301 1.0206,3.1931 2.8606,3.1931 1.84,0 2.8607,-1.463 2.8607,-3.1931"
           style="fill:#231f20;fill-opacity:1;fill-rule:nonzero;stroke:none"
           id="path418" /><path
           d="m 444.1215,231.9815 0.7371,0 0,-1.0416 0.0235,0 c 0.2816,0.7256 1.0793,1.2172 1.9358,1.2172 1.6991,0 2.2154,-0.8895 2.2154,-2.329 l 0,-3.8816 -0.7372,0 0,3.7665 c 0,1.028 -0.3402,1.8238 -1.5349,1.8238 -1.185,0 -1.8654,-0.8895 -1.9026,-2.0695 l 0,-3.5208 -0.7371,0 0,6.035 z"
           style="fill:#231f20;fill-opacity:1;fill-rule:nonzero;stroke:none"
           id="path420" /><path
           d="m 454.3029,229.2443 -0.0235,0 c -0.0958,-0.1756 -0.4243,-0.2341 -0.6218,-0.2692 -1.2573,-0.2204 -2.8157,-0.2204 -2.8157,-1.3927 0,-0.7353 0.6472,-1.1918 1.3492,-1.1918 1.138,0 2.1118,0.7139 2.1118,1.894 l 0,0.9597 z m -3.942,0.8894 c 0.0841,1.4161 1.0539,2.0228 2.452,2.0228 1.0656,0 2.2271,-0.3141 2.2271,-1.9408 l 0,-3.2048 c 0,-0.2926 0.1408,-0.4447 0.436,-0.4447 0.0802,0 0.1526,0.0117 0.2327,0.0468 l 0,-0.6203 c -0.176,-0.0351 -0.2835,-0.0468 -0.481,-0.0468 -0.7488,0 -0.8681,0.433 -0.8681,1.0533 l -0.0216,0 c -0.5279,-0.7841 -1.0324,-1.2288 -2.2036,-1.2288 -1.1282,0 -2.0316,0.55 -2.0316,1.7672 0,1.6833 1.6523,1.7535 3.2498,1.9408 0.61,0.0585 0.9503,0.1638 0.9503,0.8192 0,0.9948 -0.7059,1.2386 -1.5858,1.2386 -0.9229,0 -1.5799,-0.4213 -1.619,-1.4025 l -0.7372,0 z"
           style="fill:#231f20;fill-opacity:1;fill-rule:nonzero;stroke:none"
           id="path422" /><path
           d="m 456.5325,225.9449 0.73715,0 0,8.35225 -0.73715,0 0,-8.35225 z"
           style="fill:#231f20;fill-opacity:1;fill-rule:nonzero;stroke:none"
           id="path424" /><path
           d="m 462.8918,226.6241 2.7453,0 c 1.185,0 2.2037,0.3628 2.2037,1.7204 0,1.0767 -0.7978,1.6131 -2.2037,1.6131 l -2.7453,0 0,-3.3335 z m 0,4.0123 2.7453,0 c 1.2651,0 1.8869,0.632 1.8869,1.4161 0,1.0396 -0.6335,1.5663 -1.8869,1.5663 l -2.7453,0 0,-2.9824 z m -0.7977,3.6612 3.543,0 c 1.4059,0 2.6847,-0.4915 2.6847,-2.0461 0,-0.8778 -0.5866,-1.6853 -1.4548,-1.8726 l 0,-0.0234 c 1.0774,-0.1404 1.7715,-0.9479 1.7715,-2.0344 0,-0.7958 -0.2815,-2.3758 -3.0014,-2.3758 l -3.543,0 0,8.3523 z"
           style="fill:#231f20;fill-opacity:1;fill-rule:nonzero;stroke:none"
           id="path426" /><path
           d="m 469.7936,231.9819 0.7371,0 0,-6.035 -0.7371,0 0,6.035 z m 0,2.3153 0.7371,0 0,-1.182 -0.7371,0 0,1.182 z"
           style="fill:#231f20;fill-opacity:1;fill-rule:nonzero;stroke:none"
           id="path428" /><path
           d="m 472.386,228.9642 c 0,-1.2757 0.7136,-2.5728 2.1195,-2.5728 1.4098,0 2.1235,1.2971 2.1235,2.5728 0,1.2737 -0.7137,2.5728 -2.1235,2.5728 -1.4059,0 -2.1195,-1.2991 -2.1195,-2.5728 m 4.9802,0 c 0,-1.7321 -1.0207,-3.1931 -2.8607,-3.1931 -1.8399,0 -2.8606,1.461 -2.8606,3.1931 0,1.7301 1.0207,3.1931 2.8606,3.1931 1.84,0 2.8607,-1.463 2.8607,-3.1931"
           style="fill:#231f20;fill-opacity:1;fill-rule:nonzero;stroke:none"
           id="path430" /><path
           d="m 478.485,225.9449 0.73715,0 0,8.35225 -0.73715,0 0,-8.35225 z"
           style="fill:#231f20;fill-opacity:1;fill-rule:nonzero;stroke:none"
           id="path432" /><path
           d="m 481.078,228.9642 c 0,-1.2757 0.7137,-2.5728 2.1234,-2.5728 1.4059,0 2.1236,1.2971 2.1236,2.5728 0,1.2737 -0.7177,2.5728 -2.1236,2.5728 -1.4097,0 -2.1234,-1.2991 -2.1234,-2.5728 m 4.9841,0 c 0,-1.7321 -1.0207,-3.1931 -2.8607,-3.1931 -1.8399,0 -2.8606,1.461 -2.8606,3.1931 0,1.7301 1.0207,3.1931 2.8606,3.1931 1.84,0 2.8607,-1.463 2.8607,-3.1931"
           style="fill:#231f20;fill-opacity:1;fill-rule:nonzero;stroke:none"
           id="path434" /><path
           d="m 491.5421,229.0338 c 0,1.1821 -0.5416,2.5026 -1.9475,2.5026 -1.4058,0 -1.9944,-1.2503 -1.9944,-2.5026 0,-1.2171 0.6237,-2.3972 1.9944,-2.3972 1.2788,0 1.9475,1.1801 1.9475,2.3972 m 0.7372,-2.5961 c 0,-1.8141 -0.7254,-2.9005 -2.6847,-2.9005 -1.2064,0 -2.4128,0.5481 -2.5087,1.8237 l 0.7372,0 c 0.1525,-0.8875 0.962,-1.2034 1.7715,-1.2034 1.3707,0 1.9475,0.7938 1.9475,2.2802 l 0,0.8192 -0.0234,0 c -0.3402,-0.749 -1.0461,-1.2406 -1.9241,-1.2406 -1.9358,0 -2.7316,1.3693 -2.7316,3.0995 0,1.6618 0.9855,3.0409 2.7316,3.0409 0.8897,0 1.6308,-0.5501 1.9241,-1.2152 l 0.0234,0 0,1.0396 0.7372,0 0,-5.5434 z"
           style="fill:#231f20;fill-opacity:1;fill-rule:nonzero;stroke:none"
           id="path436" /><path
           d="m 493.0086,231.9815 0.7861,0 1.9944,-5.1475 1.8635,5.1475 0.741,0 -2.6279,-6.9596 c -0.4361,-1.0181 -0.6688,-1.3107 -1.5956,-1.3107 -0.2913,0.0136 -0.4321,0.0136 -0.5612,0.0604 l 0,0.6184 c 0.1741,-0.0351 0.3285,-0.0585 0.5026,-0.0585 0.6569,0 0.8114,0.3862 1.0558,0.9479 l 0.2581,0.6905 -2.4168,6.0116 z"
           style="fill:#231f20;fill-opacity:1;fill-rule:nonzero;stroke:none"
           id="path438" /><path
           d="m 315.5479,244.6915 6.9805,0 c 2.4344,0 3.9302,1.4336 3.9302,3.745 0,2.721 -2.1997,3.4818 -4.5461,3.4818 l -6.3646,0 0,-7.2268 z m 0,9.5674 5.5727,0 c 3.1676,0 4.4581,1.1118 4.4581,3.3355 0,2.9258 -2.0237,3.3061 -4.4581,3.3061 l -5.5727,0 0,-6.6416 z m -2.7864,8.9823 7.5965,0 c 1.8185,0 4.3115,0 5.5434,-0.7607 1.3785,-0.8192 2.4637,-2.2821 2.4637,-4.3595 0,-2.2236 -1.1439,-3.8913 -3.109,-4.6813 l 0,-0.0585 c 2.581,-0.5559 3.9889,-2.4577 3.9889,-5.0324 0,-3.0429 -2.2291,-5.998 -6.3646,-5.998 l -10.1189,0 0,20.8904 z"
           style="fill:#231f20;fill-opacity:1;fill-rule:nonzero;stroke:none"
           id="path440" /><path
           d="m 333.5305,242.351 2.49304,0 0,15.12653 -2.49304,0 0,-15.12653 z"
           style="fill:#231f20;fill-opacity:1;fill-rule:nonzero;stroke:none"
           id="path442" /><path
           d="m 347.5932,244.1943 c 2.6104,0 4.7222,2.0481 4.7222,5.7053 0,3.6573 -2.1118,5.7347 -4.7222,5.7347 -2.6103,0 -4.7221,-2.0774 -4.7221,-5.7347 0,-3.6572 2.1118,-5.7053 4.7221,-5.7053 m 0,13.6343 c 4.8102,0 7.3618,-3.4817 7.3618,-7.929 0,-4.4179 -2.5516,-7.8997 -7.3618,-7.8997 -4.8101,0 -7.3618,3.4818 -7.3618,7.8997 0,4.4473 2.5517,7.929 7.3618,7.929"
           style="fill:#231f20;fill-opacity:1;fill-rule:nonzero;stroke:none"
           id="path444" /><path
           d="m 359.2021,249.3145 8.4744,0 0,2.34065 -8.4744,0 0,-2.34065 z"
           style="fill:#231f20;fill-opacity:1;fill-rule:nonzero;stroke:none"
           id="path446" /><path
           d="m 371.9254,242.353 2.7883,0 0,20.88843 -2.7883,0 0,-20.88843 z"
           style="fill:#231f20;fill-opacity:1;fill-rule:nonzero;stroke:none"
           id="path448" /><path
           d="m 385.9408,260.9008 -6.9805,0 0,2.3406 16.7454,0 0,-2.3406 -6.9805,0 0,-18.5498 -2.7844,0 0,18.5498 z"
           style="fill:#231f20;fill-opacity:1;fill-rule:nonzero;stroke:none"
           id="path450" /><path
           d="m 332.5597,261.2273 c 0,1.221 0.9933,2.2099 2.2173,2.2099 1.224,0 2.2174,-0.9889 2.2174,-2.2099 0,-1.223 -0.9934,-2.2119 -2.2174,-2.2119 -1.224,0 -2.2173,0.9889 -2.2173,2.2119"
           style="fill:#e3182c;fill-opacity:1;fill-rule:nonzero;stroke:none"
           id="path452" /></g></g></g></svg>