<?xml version="1.0" encoding="UTF-8" standalone="no"?>
<!-- Created with Inkscape (http://www.inkscape.org/) -->

<svg
   xmlns:dc="http://purl.org/dc/elements/1.1/"
   xmlns:cc="http://creativecommons.org/ns#"
   xmlns:rdf="http://www.w3.org/1999/02/22-rdf-syntax-ns#"
   xmlns:svg="http://www.w3.org/2000/svg"
   xmlns="http://www.w3.org/2000/svg"
   xmlns:sodipodi="http://sodipodi.sourceforge.net/DTD/sodipodi-0.dtd"
   xmlns:inkscape="http://www.inkscape.org/namespaces/inkscape"
   id="svg2"
   version="1.1"
   inkscape:version="0.48.5 r10040"
   width="271.98375"
   height="74.66425"
   xml:space="preserve"
   sodipodi:docname="bio-it_logo.pdf"><metadata
     id="metadata8"><rdf:RDF><cc:Work
         rdf:about=""><dc:format>image/svg+xml</dc:format><dc:type
           rdf:resource="http://purl.org/dc/dcmitype/StillImage" /><dc:title></dc:title></cc:Work></rdf:RDF></metadata><defs
     id="defs6"><clipPath
       clipPathUnits="userSpaceOnUse"
       id="clipPath16"><path
         d="m 0,59.731 217.587,0 L 217.587,0 0,0 0,59.731 z"
         id="path18" /></clipPath></defs><sodipodi:namedview
     pagecolor="#ffffff"
     bordercolor="#666666"
     borderopacity="1"
     objecttolerance="10"
     gridtolerance="10"
     guidetolerance="10"
     inkscape:pageopacity="0"
     inkscape:pageshadow="2"
     inkscape:window-width="958"
     inkscape:window-height="1179"
     id="namedview4"
     showgrid="false"
     inkscape:zoom="1.9342605"
     inkscape:cx="152.14806"
     inkscape:cy="28.574469"
     inkscape:window-x="0"
     inkscape:window-y="19"
     inkscape:window-maximized="0"
     inkscape:current-layer="g10" /><g
     id="g10"
     inkscape:groupmode="layer"
     inkscape:label="bio-it_logo"
     transform="matrix(1.25,0,0,-1.25,0,74.66425)"><g
       id="g12"><g
         id="g14"
         clip-path="url(#clipPath16)"><g
           id="g20"
           transform="translate(83.9224,49.314)"><path
             d="M 0,0 C 0,1 0.811,1.812 1.812,1.812 2.812,1.812 3.624,1 3.624,0 3.624,-1 2.812,-1.812 1.812,-1.812 0.811,-1.812 0,-1 0,0"
             style="fill:#5db446;fill-opacity:1;fill-rule:nonzero;stroke:none"
             id="path22" /></g><g
           id="g24"
           transform="translate(83.9224,44.4517)"><path
             d="M 0,0 C 0,1 0.811,1.812 1.812,1.812 2.812,1.812 3.624,1 3.624,0 3.624,-1 2.812,-1.812 1.812,-1.812 0.811,-1.812 0,-1 0,0"
             style="fill:#5db446;fill-opacity:1;fill-rule:nonzero;stroke:none"
             id="path26" /></g><g
           id="g28"
           transform="translate(83.9224,39.5898)"><path
             d="M 0,0 C 0,1 0.811,1.812 1.812,1.812 2.812,1.812 3.624,1 3.624,0 3.624,-1 2.812,-1.812 1.812,-1.812 0.811,-1.812 0,-1 0,0"
             style="fill:#5db446;fill-opacity:1;fill-rule:nonzero;stroke:none"
             id="path30" /></g><g
           id="g32"
           transform="translate(83.9224,34.7275)"><path
             d="M 0,0 C 0,1 0.811,1.812 1.812,1.812 2.812,1.812 3.624,1 3.624,0 3.624,-1 2.812,-1.812 1.812,-1.812 0.811,-1.812 0,-1 0,0"
             style="fill:#5db446;fill-opacity:1;fill-rule:nonzero;stroke:none"
             id="path34" /></g><g
           id="g36"
           transform="translate(83.9224,29.8657)"><path
             d="M 0,0 C 0,1 0.811,1.812 1.812,1.812 2.812,1.812 3.624,1 3.624,0 3.624,-1.001 2.812,-1.812 1.812,-1.812 0.811,-1.812 0,-1.001 0,0"
             style="fill:#5db446;fill-opacity:1;fill-rule:nonzero;stroke:none"
             id="path38" /></g><g
           id="g40"
           transform="translate(83.9224,25.0039)"><path
             d="M 0,0 C 0,1 0.811,1.811 1.812,1.811 2.812,1.811 3.624,1 3.624,0 3.624,-1.001 2.812,-1.812 1.812,-1.812 0.811,-1.812 0,-1.001 0,0"
             style="fill:#5db446;fill-opacity:1;fill-rule:nonzero;stroke:none"
             id="path42" /></g><g
           id="g44"
           transform="translate(83.9224,20.1416)"><path
             d="M 0,0 C 0,1 0.811,1.811 1.812,1.811 2.812,1.811 3.624,1 3.624,0 3.624,-1.001 2.812,-1.812 1.812,-1.812 0.811,-1.812 0,-1.001 0,0"
             style="fill:#5db446;fill-opacity:1;fill-rule:nonzero;stroke:none"
             id="path46" /></g><g
           id="g48"
           transform="translate(83.9224,15.2798)"><path
             d="M 0,0 C 0,1 0.811,1.811 1.812,1.811 2.812,1.811 3.624,1 3.624,0 3.624,-1.001 2.812,-1.812 1.812,-1.812 0.811,-1.812 0,-1.001 0,0"
             style="fill:#5db446;fill-opacity:1;fill-rule:nonzero;stroke:none"
             id="path50" /></g><g
           id="g52"
           transform="translate(83.9224,10.4175)"><path
             d="M 0,0 C 0,1 0.811,1.811 1.812,1.811 2.812,1.811 3.624,1 3.624,0 3.624,-1.001 2.812,-1.812 1.812,-1.812 0.811,-1.812 0,-1.001 0,0"
             style="fill:#5db446;fill-opacity:1;fill-rule:nonzero;stroke:none"
             id="path54" /></g><g
           id="g56"
           transform="translate(88.4351,46.8828)"><path
             d="M 0,0 C 0,1 0.811,1.812 1.812,1.812 2.812,1.812 3.623,1 3.623,0 3.623,-1 2.812,-1.812 1.812,-1.812 0.811,-1.812 0,-1 0,0"
             style="fill:#5db446;fill-opacity:1;fill-rule:nonzero;stroke:none"
             id="path58" /></g><g
           id="g60"
           transform="translate(88.4351,42.021)"><path
             d="M 0,0 C 0,1 0.811,1.812 1.812,1.812 2.812,1.812 3.623,1 3.623,0 3.623,-1.001 2.812,-1.812 1.812,-1.812 0.811,-1.812 0,-1.001 0,0"
             style="fill:#5db446;fill-opacity:1;fill-rule:nonzero;stroke:none"
             id="path62" /></g><g
           id="g64"
           transform="translate(88.4351,37.1587)"><path
             d="M 0,0 C 0,1 0.811,1.812 1.812,1.812 2.812,1.812 3.623,1 3.623,0 3.623,-1 2.812,-1.812 1.812,-1.812 0.811,-1.812 0,-1 0,0"
             style="fill:#5db446;fill-opacity:1;fill-rule:nonzero;stroke:none"
             id="path66" /></g><g
           id="g68"
           transform="translate(88.4351,32.2969)"><path
             d="M 0,0 C 0,1 0.811,1.812 1.812,1.812 2.812,1.812 3.623,1 3.623,0 3.623,-1 2.812,-1.812 1.812,-1.812 0.811,-1.812 0,-1 0,0"
             style="fill:#5db446;fill-opacity:1;fill-rule:nonzero;stroke:none"
             id="path70" /></g><g
           id="g72"
           transform="translate(88.4351,27.4346)"><path
             d="m 0,0 c 0,1.001 0.811,1.812 1.812,1.812 1,0 1.811,-0.811 1.811,-1.812 0,-1 -0.811,-1.812 -1.811,-1.812 C 0.811,-1.812 0,-1 0,0"
             style="fill:#5db446;fill-opacity:1;fill-rule:nonzero;stroke:none"
             id="path74" /></g><g
           id="g76"
           transform="translate(88.4351,22.5723)"><path
             d="m 0,0 c 0,1.001 0.811,1.812 1.812,1.812 1,0 1.811,-0.811 1.811,-1.812 0,-1 -0.811,-1.812 -1.811,-1.812 C 0.811,-1.812 0,-1 0,0"
             style="fill:#5db446;fill-opacity:1;fill-rule:nonzero;stroke:none"
             id="path78" /></g><g
           id="g80"
           transform="translate(88.4351,17.7104)"><path
             d="m 0,0 c 0,1.001 0.811,1.812 1.812,1.812 1,0 1.811,-0.811 1.811,-1.812 0,-1 -0.811,-1.812 -1.811,-1.812 C 0.811,-1.812 0,-1 0,0"
             style="fill:#5db446;fill-opacity:1;fill-rule:nonzero;stroke:none"
             id="path82" /></g><g
           id="g84"
           transform="translate(88.4351,12.8481)"><path
             d="m 0,0 c 0,1.001 0.811,1.812 1.812,1.812 1,0 1.811,-0.811 1.811,-1.812 0,-1 -0.811,-1.812 -1.811,-1.812 C 0.811,-1.812 0,-1 0,0"
             style="fill:#5db446;fill-opacity:1;fill-rule:nonzero;stroke:none"
             id="path86" /></g><g
           id="g88"
           transform="translate(92.7085,44.4517)"><path
             d="M 0,0 C 0,1 0.812,1.812 1.812,1.812 2.813,1.812 3.624,1 3.624,0 3.624,-1 2.813,-1.812 1.812,-1.812 0.812,-1.812 0,-1 0,0"
             style="fill:#5db446;fill-opacity:1;fill-rule:nonzero;stroke:none"
             id="path90" /></g><g
           id="g92"
           transform="translate(92.7085,39.5898)"><path
             d="M 0,0 C 0,1 0.812,1.812 1.812,1.812 2.813,1.812 3.624,1 3.624,0 3.624,-1 2.813,-1.812 1.812,-1.812 0.812,-1.812 0,-1 0,0"
             style="fill:#5db446;fill-opacity:1;fill-rule:nonzero;stroke:none"
             id="path94" /></g><g
           id="g96"
           transform="translate(92.7085,34.7275)"><path
             d="M 0,0 C 0,1 0.812,1.812 1.812,1.812 2.813,1.812 3.624,1 3.624,0 3.624,-1 2.813,-1.812 1.812,-1.812 0.812,-1.812 0,-1 0,0"
             style="fill:#5db446;fill-opacity:1;fill-rule:nonzero;stroke:none"
             id="path98" /></g><g
           id="g100"
           transform="translate(92.7085,29.8657)"><path
             d="M 0,0 C 0,1 0.812,1.812 1.812,1.812 2.813,1.812 3.624,1 3.624,0 3.624,-1.001 2.813,-1.812 1.812,-1.812 0.812,-1.812 0,-1.001 0,0"
             style="fill:#5db446;fill-opacity:1;fill-rule:nonzero;stroke:none"
             id="path102" /></g><g
           id="g104"
           transform="translate(92.7085,25.0039)"><path
             d="M 0,0 C 0,1 0.812,1.811 1.812,1.811 2.813,1.811 3.624,1 3.624,0 3.624,-1.001 2.813,-1.812 1.812,-1.812 0.812,-1.812 0,-1.001 0,0"
             style="fill:#5db446;fill-opacity:1;fill-rule:nonzero;stroke:none"
             id="path106" /></g><g
           id="g108"
           transform="translate(92.7085,20.1416)"><path
             d="M 0,0 C 0,1 0.812,1.811 1.812,1.811 2.813,1.811 3.624,1 3.624,0 3.624,-1.001 2.813,-1.812 1.812,-1.812 0.812,-1.812 0,-1.001 0,0"
             style="fill:#5db446;fill-opacity:1;fill-rule:nonzero;stroke:none"
             id="path110" /></g><g
           id="g112"
           transform="translate(92.7085,15.2798)"><path
             d="M 0,0 C 0,1 0.812,1.811 1.812,1.811 2.813,1.811 3.624,1 3.624,0 3.624,-1.001 2.813,-1.812 1.812,-1.812 0.812,-1.812 0,-1.001 0,0"
             style="fill:#5db446;fill-opacity:1;fill-rule:nonzero;stroke:none"
             id="path114" /></g><g
           id="g116"
           transform="translate(97.0376,42.021)"><path
             d="M 0,0 C 0,1 0.812,1.812 1.812,1.812 2.812,1.812 3.623,1 3.623,0 3.623,-1.001 2.812,-1.812 1.812,-1.812 0.812,-1.812 0,-1.001 0,0"
             style="fill:#5db446;fill-opacity:1;fill-rule:nonzero;stroke:none"
             id="path118" /></g><g
           id="g120"
           transform="translate(97.0376,37.1587)"><path
             d="M 0,0 C 0,1 0.812,1.812 1.812,1.812 2.812,1.812 3.623,1 3.623,0 3.623,-1 2.812,-1.812 1.812,-1.812 0.812,-1.812 0,-1 0,0"
             style="fill:#5db446;fill-opacity:1;fill-rule:nonzero;stroke:none"
             id="path122" /></g><g
           id="g124"
           transform="translate(97.0376,32.2969)"><path
             d="M 0,0 C 0,1 0.812,1.812 1.812,1.812 2.812,1.812 3.623,1 3.623,0 3.623,-1 2.812,-1.812 1.812,-1.812 0.812,-1.812 0,-1 0,0"
             style="fill:#5db446;fill-opacity:1;fill-rule:nonzero;stroke:none"
             id="path126" /></g><g
           id="g128"
           transform="translate(97.0376,27.4346)"><path
             d="m 0,0 c 0,1.001 0.812,1.812 1.812,1.812 1,0 1.811,-0.811 1.811,-1.812 0,-1 -0.811,-1.812 -1.811,-1.812 C 0.812,-1.812 0,-1 0,0"
             style="fill:#5db446;fill-opacity:1;fill-rule:nonzero;stroke:none"
             id="path130" /></g><g
           id="g132"
           transform="translate(97.0376,22.5723)"><path
             d="m 0,0 c 0,1.001 0.812,1.812 1.812,1.812 1,0 1.811,-0.811 1.811,-1.812 0,-1 -0.811,-1.812 -1.811,-1.812 C 0.812,-1.812 0,-1 0,0"
             style="fill:#5db446;fill-opacity:1;fill-rule:nonzero;stroke:none"
             id="path134" /></g><g
           id="g136"
           transform="translate(97.0376,17.7104)"><path
             d="m 0,0 c 0,1.001 0.812,1.812 1.812,1.812 1,0 1.811,-0.811 1.811,-1.812 0,-1 -0.811,-1.812 -1.811,-1.812 C 0.812,-1.812 0,-1 0,0"
             style="fill:#5db446;fill-opacity:1;fill-rule:nonzero;stroke:none"
             id="path138" /></g><g
           id="g140"
           transform="translate(101.3804,39.5898)"><path
             d="M 0,0 C 0,1 0.811,1.812 1.812,1.812 2.812,1.812 3.624,1 3.624,0 3.624,-1 2.812,-1.812 1.812,-1.812 0.811,-1.812 0,-1 0,0"
             style="fill:#5db446;fill-opacity:1;fill-rule:nonzero;stroke:none"
             id="path142" /></g><g
           id="g144"
           transform="translate(101.3804,34.7275)"><path
             d="M 0,0 C 0,1 0.811,1.812 1.812,1.812 2.812,1.812 3.624,1 3.624,0 3.624,-1 2.812,-1.812 1.812,-1.812 0.811,-1.812 0,-1 0,0"
             style="fill:#5db446;fill-opacity:1;fill-rule:nonzero;stroke:none"
             id="path146" /></g><g
           id="g148"
           transform="translate(101.3804,29.8657)"><path
             d="M 0,0 C 0,1 0.811,1.812 1.812,1.812 2.812,1.812 3.624,1 3.624,0 3.624,-1.001 2.812,-1.812 1.812,-1.812 0.811,-1.812 0,-1.001 0,0"
             style="fill:#5db446;fill-opacity:1;fill-rule:nonzero;stroke:none"
             id="path150" /></g><g
           id="g152"
           transform="translate(101.3804,25.0039)"><path
             d="M 0,0 C 0,1 0.811,1.811 1.812,1.811 2.812,1.811 3.624,1 3.624,0 3.624,-1.001 2.812,-1.812 1.812,-1.812 0.811,-1.812 0,-1.001 0,0"
             style="fill:#5db446;fill-opacity:1;fill-rule:nonzero;stroke:none"
             id="path154" /></g><g
           id="g156"
           transform="translate(101.3804,20.1416)"><path
             d="M 0,0 C 0,1 0.811,1.811 1.812,1.811 2.812,1.811 3.624,1 3.624,0 3.624,-1.001 2.812,-1.812 1.812,-1.812 0.811,-1.812 0,-1.001 0,0"
             style="fill:#5db446;fill-opacity:1;fill-rule:nonzero;stroke:none"
             id="path158" /></g><g
           id="g160"
           transform="translate(79.7036,46.8828)"><path
             d="M 0,0 C 0,1 0.811,1.812 1.812,1.812 2.812,1.812 3.623,1 3.623,0 3.623,-1 2.812,-1.812 1.812,-1.812 0.811,-1.812 0,-1 0,0"
             style="fill:#5db446;fill-opacity:1;fill-rule:nonzero;stroke:none"
             id="path162" /></g><g
           id="g164"
           transform="translate(79.7036,42.021)"><path
             d="M 0,0 C 0,1 0.811,1.812 1.812,1.812 2.812,1.812 3.623,1 3.623,0 3.623,-1.001 2.812,-1.812 1.812,-1.812 0.811,-1.812 0,-1.001 0,0"
             style="fill:#5db446;fill-opacity:1;fill-rule:nonzero;stroke:none"
             id="path166" /></g><g
           id="g168"
           transform="translate(79.7036,37.1587)"><path
             d="M 0,0 C 0,1 0.811,1.812 1.812,1.812 2.812,1.812 3.623,1 3.623,0 3.623,-1 2.812,-1.812 1.812,-1.812 0.811,-1.812 0,-1 0,0"
             style="fill:#5db446;fill-opacity:1;fill-rule:nonzero;stroke:none"
             id="path170" /></g><g
           id="g172"
           transform="translate(79.7036,32.2969)"><path
             d="M 0,0 C 0,1 0.811,1.812 1.812,1.812 2.812,1.812 3.623,1 3.623,0 3.623,-1 2.812,-1.812 1.812,-1.812 0.811,-1.812 0,-1 0,0"
             style="fill:#5db446;fill-opacity:1;fill-rule:nonzero;stroke:none"
             id="path174" /></g><g
           id="g176"
           transform="translate(79.7036,27.4346)"><path
             d="m 0,0 c 0,1.001 0.811,1.812 1.812,1.812 1,0 1.811,-0.811 1.811,-1.812 0,-1 -0.811,-1.812 -1.811,-1.812 C 0.811,-1.812 0,-1 0,0"
             style="fill:#5db446;fill-opacity:1;fill-rule:nonzero;stroke:none"
             id="path178" /></g><g
           id="g180"
           transform="translate(79.7036,22.5723)"><path
             d="m 0,0 c 0,1.001 0.811,1.812 1.812,1.812 1,0 1.811,-0.811 1.811,-1.812 0,-1 -0.811,-1.812 -1.811,-1.812 C 0.811,-1.812 0,-1 0,0"
             style="fill:#5db446;fill-opacity:1;fill-rule:nonzero;stroke:none"
             id="path182" /></g><g
           id="g184"
           transform="translate(79.7036,17.7104)"><path
             d="m 0,0 c 0,1.001 0.811,1.812 1.812,1.812 1,0 1.811,-0.811 1.811,-1.812 0,-1 -0.811,-1.812 -1.811,-1.812 C 0.811,-1.812 0,-1 0,0"
             style="fill:#5db446;fill-opacity:1;fill-rule:nonzero;stroke:none"
             id="path186" /></g><g
           id="g188"
           transform="translate(79.7036,12.8481)"><path
             d="m 0,0 c 0,1.001 0.811,1.812 1.812,1.812 1,0 1.811,-0.811 1.811,-1.812 0,-1 -0.811,-1.812 -1.811,-1.812 C 0.811,-1.812 0,-1 0,0"
             style="fill:#5db446;fill-opacity:1;fill-rule:nonzero;stroke:none"
             id="path190" /></g><g
           id="g192"
           transform="translate(75.4111,44.4517)"><path
             d="M 0,0 C 0,1 0.811,1.812 1.812,1.812 2.812,1.812 3.623,1 3.623,0 3.623,-1 2.812,-1.812 1.812,-1.812 0.811,-1.812 0,-1 0,0"
             style="fill:#5db446;fill-opacity:1;fill-rule:nonzero;stroke:none"
             id="path194" /></g><g
           id="g196"
           transform="translate(75.4111,39.5898)"><path
             d="M 0,0 C 0,1 0.811,1.812 1.812,1.812 2.812,1.812 3.623,1 3.623,0 3.623,-1 2.812,-1.812 1.812,-1.812 0.811,-1.812 0,-1 0,0"
             style="fill:#5db446;fill-opacity:1;fill-rule:nonzero;stroke:none"
             id="path198" /></g><g
           id="g200"
           transform="translate(75.4111,34.7275)"><path
             d="M 0,0 C 0,1 0.811,1.812 1.812,1.812 2.812,1.812 3.623,1 3.623,0 3.623,-1 2.812,-1.812 1.812,-1.812 0.811,-1.812 0,-1 0,0"
             style="fill:#5db446;fill-opacity:1;fill-rule:nonzero;stroke:none"
             id="path202" /></g><g
           id="g204"
           transform="translate(75.4111,29.8657)"><path
             d="M 0,0 C 0,1 0.811,1.812 1.812,1.812 2.812,1.812 3.623,1 3.623,0 3.623,-1.001 2.812,-1.812 1.812,-1.812 0.811,-1.812 0,-1.001 0,0"
             style="fill:#5db446;fill-opacity:1;fill-rule:nonzero;stroke:none"
             id="path206" /></g><g
           id="g208"
           transform="translate(75.4111,25.0039)"><path
             d="M 0,0 C 0,1 0.811,1.811 1.812,1.811 2.812,1.811 3.623,1 3.623,0 3.623,-1.001 2.812,-1.812 1.812,-1.812 0.811,-1.812 0,-1.001 0,0"
             style="fill:#e3182c;fill-opacity:1;fill-rule:nonzero;stroke:none"
             id="path210" /></g><g
           id="g212"
           transform="translate(75.4111,20.1416)"><path
             d="M 0,0 C 0,1 0.811,1.811 1.812,1.811 2.812,1.811 3.623,1 3.623,0 3.623,-1.001 2.812,-1.812 1.812,-1.812 0.811,-1.812 0,-1.001 0,0"
             style="fill:#5db446;fill-opacity:1;fill-rule:nonzero;stroke:none"
             id="path214" /></g><g
           id="g216"
           transform="translate(75.4111,15.2798)"><path
             d="M 0,0 C 0,1 0.811,1.811 1.812,1.811 2.812,1.811 3.623,1 3.623,0 3.623,-1.001 2.812,-1.812 1.812,-1.812 0.811,-1.812 0,-1.001 0,0"
             style="fill:#5db446;fill-opacity:1;fill-rule:nonzero;stroke:none"
             id="path218" /></g><g
           id="g220"
           transform="translate(71.0273,42.021)"><path
             d="M 0,0 C 0,1 0.811,1.812 1.812,1.812 2.812,1.812 3.623,1 3.623,0 3.623,-1.001 2.812,-1.812 1.812,-1.812 0.811,-1.812 0,-1.001 0,0"
             style="fill:#5db446;fill-opacity:1;fill-rule:nonzero;stroke:none"
             id="path222" /></g><g
           id="g224"
           transform="translate(71.0273,37.1587)"><path
             d="M 0,0 C 0,1 0.811,1.812 1.812,1.812 2.812,1.812 3.623,1 3.623,0 3.623,-1 2.812,-1.812 1.812,-1.812 0.811,-1.812 0,-1 0,0"
             style="fill:#5db446;fill-opacity:1;fill-rule:nonzero;stroke:none"
             id="path226" /></g><g
           id="g228"
           transform="translate(71.0273,32.2969)"><path
             d="M 0,0 C 0,1 0.811,1.812 1.812,1.812 2.812,1.812 3.623,1 3.623,0 3.623,-1 2.812,-1.812 1.812,-1.812 0.811,-1.812 0,-1 0,0"
             style="fill:#5db446;fill-opacity:1;fill-rule:nonzero;stroke:none"
             id="path230" /></g><g
           id="g232"
           transform="translate(71.0273,27.4346)"><path
             d="m 0,0 c 0,1.001 0.811,1.812 1.812,1.812 1,0 1.811,-0.811 1.811,-1.812 0,-1 -0.811,-1.812 -1.811,-1.812 C 0.811,-1.812 0,-1 0,0"
             style="fill:#5db446;fill-opacity:1;fill-rule:nonzero;stroke:none"
             id="path234" /></g><g
           id="g236"
           transform="translate(71.0273,22.5723)"><path
             d="m 0,0 c 0,1.001 0.811,1.812 1.812,1.812 1,0 1.811,-0.811 1.811,-1.812 0,-1 -0.811,-1.812 -1.811,-1.812 C 0.811,-1.812 0,-1 0,0"
             style="fill:#5db446;fill-opacity:1;fill-rule:nonzero;stroke:none"
             id="path238" /></g><g
           id="g240"
           transform="translate(71.0273,17.7104)"><path
             d="m 0,0 c 0,1.001 0.811,1.812 1.812,1.812 1,0 1.811,-0.811 1.811,-1.812 0,-1 -0.811,-1.812 -1.811,-1.812 C 0.811,-1.812 0,-1 0,0"
             style="fill:#5db446;fill-opacity:1;fill-rule:nonzero;stroke:none"
             id="path242" /></g><g
           id="g244"
           transform="translate(66.7866,39.5898)"><path
             d="M 0,0 C 0,1 0.811,1.812 1.812,1.812 2.812,1.812 3.623,1 3.623,0 3.623,-1 2.812,-1.812 1.812,-1.812 0.811,-1.812 0,-1 0,0"
             style="fill:#5db446;fill-opacity:1;fill-rule:nonzero;stroke:none"
             id="path246" /></g><g
           id="g248"
           transform="translate(66.7866,34.7275)"><path
             d="M 0,0 C 0,1 0.811,1.812 1.812,1.812 2.812,1.812 3.623,1 3.623,0 3.623,-1 2.812,-1.812 1.812,-1.812 0.811,-1.812 0,-1 0,0"
             style="fill:#5db446;fill-opacity:1;fill-rule:nonzero;stroke:none"
             id="path250" /></g><g
           id="g252"
           transform="translate(66.7866,29.8657)"><path
             d="M 0,0 C 0,1 0.811,1.812 1.812,1.812 2.812,1.812 3.623,1 3.623,0 3.623,-1.001 2.812,-1.812 1.812,-1.812 0.811,-1.812 0,-1.001 0,0"
             style="fill:#5db446;fill-opacity:1;fill-rule:nonzero;stroke:none"
             id="path254" /></g><g
           id="g256"
           transform="translate(66.7866,25.0039)"><path
             d="M 0,0 C 0,1 0.811,1.811 1.812,1.811 2.812,1.811 3.623,1 3.623,0 3.623,-1.001 2.812,-1.812 1.812,-1.812 0.811,-1.812 0,-1.001 0,0"
             style="fill:#5db446;fill-opacity:1;fill-rule:nonzero;stroke:none"
             id="path258" /></g><g
           id="g260"
           transform="translate(66.7866,20.1416)"><path
             d="M 0,0 C 0,1 0.811,1.811 1.812,1.811 2.812,1.811 3.623,1 3.623,0 3.623,-1.001 2.812,-1.812 1.812,-1.812 0.811,-1.812 0,-1.001 0,0"
             style="fill:#5db446;fill-opacity:1;fill-rule:nonzero;stroke:none"
             id="path262" /></g><g
           id="g264"
           transform="translate(16.9424,24.4004)"><path
             d="m 0,0 -8.764,0 0,4.858 7.954,0 0,1.741 -7.954,0 0,4.453 8.622,0 0,1.74 -10.586,0 0,-14.533 L 0,-1.741 0,0 z"
             style="fill:#231f20;fill-opacity:1;fill-rule:nonzero;stroke:none"
             id="path266" /></g><g
           id="g268"
           transform="translate(33.396,22.6597)"><path
             d="m 0,0 0,14.533 -2.793,0 -4.129,-12.286 -0.04,0 -4.15,12.286 -2.813,0 0,-14.533 1.903,0 0,8.582 c 0,0.425 -0.041,2.267 -0.041,3.603 l 0.041,0 L -7.934,0 l 1.943,0 4.089,12.205 0.04,0 c 0,-1.356 -0.04,-3.198 -0.04,-3.623 L -1.902,0 0,0 z"
             style="fill:#231f20;fill-opacity:1;fill-rule:nonzero;stroke:none"
             id="path270" /></g><g
           id="g272"
           transform="translate(38.5356,29.4404)"><path
             d="m 0,0 3.866,0 c 1.599,0 3.4,-0.405 3.4,-2.449 0,-1.62 -1.032,-2.652 -3.076,-2.652 L 0,-5.101 0,0 z m -1.963,-6.781 6.254,0 c 3.218,0 4.938,1.964 4.938,4.292 0,2.489 -1.679,3.157 -2.631,3.541 1.599,0.749 1.944,2.085 1.944,3.036 0,1.984 -1.397,3.664 -4.11,3.664 l -6.395,0 0,-14.533 z M 0,6.072 l 3.562,0 c 2.186,0 3.016,-0.769 3.016,-2.125 0,-1.781 -1.154,-2.348 -3.036,-2.348 L 0,1.599 0,6.072 z"
             style="fill:#231f20;fill-opacity:1;fill-rule:evenodd;stroke:none"
             id="path274" /></g><g
           id="g276"
           transform="translate(52.0947,37.1924)"><path
             d="m 0,0 -1.963,0 0,-14.533 9.331,0 0,1.741 -7.368,0 L 0,0 z"
             style="fill:#231f20;fill-opacity:1;fill-rule:nonzero;stroke:none"
             id="path278" /></g><g
           id="g280"
           transform="translate(116.4365,25.1543)"><path
             d="m 0,0 3.394,0 0,-0.348 -1.493,0 0,-3.934 -0.408,0 0,3.934 L 0,-0.348 0,0 z"
             style="fill:#231f20;fill-opacity:1;fill-rule:nonzero;stroke:none"
             id="path282" /></g><g
           id="g284"
           transform="translate(120.1563,25.1543)"><path
             d="m 0,0 0.377,0 0,-1.721 0.013,0 c 0.144,0.372 0.551,0.623 0.989,0.623 0.87,0 1.133,-0.455 1.133,-1.193 l 0,-1.991 -0.377,0 0,1.931 c 0,0.528 -0.174,0.935 -0.786,0.935 -0.606,0 -0.953,-0.455 -0.972,-1.061 l 0,-1.805 L 0,-4.282 0,0 z"
             style="fill:#231f20;fill-opacity:1;fill-rule:nonzero;stroke:none"
             id="path286" /></g><g
           id="g288"
           transform="translate(125.6084,22.6357)"><path
             d="M 0,0 C -0.018,0.569 -0.377,1.103 -0.983,1.103 -1.607,1.103 -1.937,0.563 -2.003,0 L 0,0 z m -2.003,-0.318 c 0,-0.552 0.3,-1.217 1.02,-1.217 0.551,0 0.851,0.318 0.971,0.791 l 0.378,0 c -0.162,-0.701 -0.564,-1.109 -1.349,-1.109 -0.984,0 -1.397,0.755 -1.397,1.637 0,0.816 0.413,1.637 1.397,1.637 0.989,0 1.391,-0.869 1.361,-1.739 l -2.381,0 z"
             style="fill:#231f20;fill-opacity:1;fill-rule:nonzero;stroke:none"
             id="path290" /></g><g
           id="g292"
           transform="translate(128.645,23.0552)"><path
             d="m 0,0 1.403,0 c 0.57,0 0.954,0.282 0.954,0.875 0,0.594 -0.384,0.876 -0.954,0.876 L 0,1.751 0,0 z m -0.408,2.099 1.901,0 c 0.768,0 1.272,-0.45 1.272,-1.224 0,-0.773 -0.504,-1.223 -1.272,-1.223 l -1.493,0 0,-1.835 -0.408,0 0,4.282 z"
             style="fill:#231f20;fill-opacity:1;fill-rule:nonzero;stroke:none"
             id="path294" /></g><g
           id="g296"
           transform="translate(132.167,22.4199)"><path
             d="m 0,0 c 0,-0.654 0.366,-1.319 1.085,-1.319 0.72,0 1.086,0.665 1.086,1.319 0,0.653 -0.366,1.319 -1.086,1.319 C 0.366,1.319 0,0.653 0,0 m 2.549,0 c 0,-0.888 -0.522,-1.637 -1.464,-1.637 -0.941,0 -1.462,0.749 -1.462,1.637 0,0.887 0.521,1.637 1.462,1.637 0.942,0 1.464,-0.75 1.464,-1.637"
             style="fill:#231f20;fill-opacity:1;fill-rule:nonzero;stroke:none"
             id="path298" /></g><g
           id="g300"
           transform="translate(135.2812,23.9668)"><path
             d="m 0,0 0.348,0 0,-0.726 0.012,0 c 0.192,0.504 0.611,0.792 1.169,0.768 l 0,-0.378 C 0.846,-0.306 0.378,-0.797 0.378,-1.445 l 0,-1.649 L 0,-3.094 0,0 z"
             style="fill:#231f20;fill-opacity:1;fill-rule:nonzero;stroke:none"
             id="path302" /></g><g
           id="g304"
           transform="translate(137.771,23.9668)"><path
             d="m 0,0 0.63,0 0,-0.318 -0.63,0 0,-2.087 c 0,-0.245 0.036,-0.389 0.306,-0.408 0.108,0 0.215,0.007 0.324,0.019 l 0,-0.324 c -0.114,0 -0.222,-0.012 -0.336,-0.012 -0.504,0 -0.678,0.168 -0.672,0.695 l 0,2.117 -0.539,0 0,0.318 0.539,0 0,0.93 L 0,0.93 0,0 z"
             style="fill:#231f20;fill-opacity:1;fill-rule:nonzero;stroke:none"
             id="path306" /></g><g
           id="g308"
           transform="translate(140.9263,22.5635)"><path
             d="m 0,0 -0.012,0 c -0.048,-0.09 -0.216,-0.12 -0.318,-0.138 -0.642,-0.113 -1.439,-0.113 -1.439,-0.714 0,-0.377 0.33,-0.611 0.689,-0.611 0.582,0 1.08,0.366 1.08,0.971 L 0,0 z m -2.015,0.456 c 0.042,0.726 0.539,1.037 1.253,1.037 0.546,0 1.139,-0.161 1.139,-0.995 l 0,-1.643 c 0,-0.15 0.073,-0.228 0.223,-0.228 0.042,0 0.077,0.006 0.119,0.024 l 0,-0.318 c -0.09,-0.018 -0.143,-0.024 -0.245,-0.024 -0.384,0 -0.444,0.222 -0.444,0.54 l -0.012,0 c -0.27,-0.402 -0.528,-0.63 -1.127,-0.63 -0.576,0 -1.038,0.282 -1.038,0.906 0,0.863 0.846,0.899 1.661,0.995 C -0.174,0.15 0,0.204 0,0.54 c 0,0.51 -0.36,0.635 -0.81,0.635 -0.473,0 -0.809,-0.216 -0.827,-0.719 l -0.378,0 z"
             style="fill:#231f20;fill-opacity:1;fill-rule:nonzero;stroke:none"
             id="path310" /></g><path
           d="m 142.067,25.154 0.378,0 0,-4.282 -0.378,0 0,4.282 z"
           style="fill:#231f20;fill-opacity:1;fill-rule:nonzero;stroke:none"
           id="path312" /><g
           id="g314"
           transform="translate(146.0317,23.6489)"><path
             d="m 0,0 -0.611,0 0,-2.776 -0.378,0 0,2.776 -0.528,0 0,0.318 0.528,0 0,0.282 c 0,0.533 0.137,0.905 0.75,0.905 0.113,0 0.197,-0.005 0.317,-0.024 l 0,-0.324 c -0.101,0.018 -0.185,0.03 -0.275,0.03 -0.414,0 -0.414,-0.27 -0.414,-0.599 l 0,-0.27 L 0,0.318 0,0 z"
             style="fill:#231f20;fill-opacity:1;fill-rule:nonzero;stroke:none"
             id="path316" /></g><g
           id="g318"
           transform="translate(146.6147,22.4199)"><path
             d="m 0,0 c 0,-0.654 0.365,-1.319 1.085,-1.319 0.72,0 1.086,0.665 1.086,1.319 0,0.653 -0.366,1.319 -1.086,1.319 C 0.365,1.319 0,0.653 0,0 m 2.547,0 c 0,-0.888 -0.521,-1.637 -1.462,-1.637 -0.941,0 -1.463,0.749 -1.463,1.637 0,0.887 0.522,1.637 1.463,1.637 0.941,0 1.462,-0.75 1.462,-1.637"
             style="fill:#231f20;fill-opacity:1;fill-rule:nonzero;stroke:none"
             id="path320" /></g><g
           id="g322"
           transform="translate(149.728,23.9668)"><path
             d="m 0,0 0.348,0 0,-0.726 0.011,0 c 0.192,0.504 0.612,0.792 1.17,0.768 l 0,-0.378 C 0.846,-0.306 0.377,-0.797 0.377,-1.445 l 0,-1.649 L 0,-3.094 0,0 z"
             style="fill:#231f20;fill-opacity:1;fill-rule:nonzero;stroke:none"
             id="path324" /></g><g
           id="g326"
           transform="translate(156.4878,23.8589)"><path
             d="m 0,0 c -0.145,0.66 -0.689,1.038 -1.312,1.038 -1.135,0 -1.614,-0.948 -1.614,-1.884 0,-0.935 0.479,-1.883 1.614,-1.883 0.791,0 1.294,0.612 1.373,1.374 l 0.406,0 c -0.113,-1.056 -0.779,-1.721 -1.779,-1.721 -1.35,0 -2.022,1.055 -2.022,2.23 0,1.176 0.672,2.231 2.022,2.231 0.814,0 1.605,-0.491 1.72,-1.385 L 0,0 z"
             style="fill:#231f20;fill-opacity:1;fill-rule:nonzero;stroke:none"
             id="path328" /></g><g
           id="g330"
           transform="translate(157.7319,22.4199)"><path
             d="M 0,0 C 0,-0.654 0.365,-1.319 1.084,-1.319 1.805,-1.319 2.17,-0.654 2.17,0 2.17,0.653 1.805,1.319 1.084,1.319 0.365,1.319 0,0.653 0,0 m 2.547,0 c 0,-0.888 -0.522,-1.637 -1.463,-1.637 -0.941,0 -1.463,0.749 -1.463,1.637 0,0.887 0.522,1.637 1.463,1.637 0.941,0 1.463,-0.75 1.463,-1.637"
             style="fill:#231f20;fill-opacity:1;fill-rule:nonzero;stroke:none"
             id="path332" /></g><g
           id="g334"
           transform="translate(160.8452,23.9668)"><path
             d="m 0,0 0.348,0 0,-0.521 0.017,0 c 0.199,0.377 0.516,0.611 1.014,0.611 0.408,0 0.773,-0.198 0.889,-0.606 0.185,0.408 0.574,0.606 0.982,0.606 0.684,0 1.025,-0.36 1.025,-1.086 l 0,-2.098 -0.377,0 0,2.081 c 0,0.51 -0.187,0.785 -0.732,0.785 -0.654,0 -0.84,-0.54 -0.84,-1.115 l 0,-1.751 -0.377,0 0,2.098 c 0,0.42 -0.162,0.768 -0.648,0.768 -0.647,0 -0.924,-0.492 -0.924,-1.139 l 0,-1.727 L 0,-3.094 0,0 z"
             style="fill:#231f20;fill-opacity:1;fill-rule:nonzero;stroke:none"
             id="path336" /></g><g
           id="g338"
           transform="translate(167.3062,23.7388)"><path
             d="m 0,0 c -0.84,0 -1.086,-0.618 -1.086,-1.319 0,-0.642 0.289,-1.319 1.086,-1.319 0.721,0 1.014,0.677 1.014,1.319 C 1.014,-0.677 0.721,0 0,0 m -1.463,0.228 0.348,0 0,-0.587 0.011,0 c 0.174,0.425 0.6,0.677 1.104,0.677 0.941,0 1.391,-0.755 1.391,-1.637 0,-0.882 -0.45,-1.637 -1.391,-1.637 -0.455,0 -0.912,0.227 -1.072,0.678 l -0.014,0 0,-1.734 -0.377,0 0,4.24 z"
             style="fill:#231f20;fill-opacity:1;fill-rule:nonzero;stroke:none"
             id="path340" /></g><g
           id="g342"
           transform="translate(171.7944,20.8726)"><path
             d="m 0,0 -0.348,0 0,0.558 -0.011,0 c -0.2,-0.414 -0.606,-0.648 -1.069,-0.648 -0.785,0 -1.086,0.45 -1.086,1.175 l 0,2.009 0.379,0 0,-2.014 c 0.018,-0.559 0.227,-0.852 0.828,-0.852 0.647,0 0.928,0.611 0.928,1.241 l 0,1.625 L 0,3.094 0,0 z"
             style="fill:#231f20;fill-opacity:1;fill-rule:nonzero;stroke:none"
             id="path344" /></g><g
           id="g346"
           transform="translate(173.1089,23.9668)"><path
             d="m 0,0 0.629,0 0,-0.318 -0.629,0 0,-2.087 c 0,-0.245 0.035,-0.389 0.307,-0.408 0.107,0 0.214,0.007 0.322,0.019 l 0,-0.324 c -0.113,0 -0.221,-0.012 -0.336,-0.012 -0.502,0 -0.678,0.168 -0.67,0.695 l 0,2.117 -0.541,0 0,0.318 0.541,0 0,0.93 L 0,0.93 0,0 z"
             style="fill:#231f20;fill-opacity:1;fill-rule:nonzero;stroke:none"
             id="path348" /></g><g
           id="g350"
           transform="translate(176.2651,22.5635)"><path
             d="m 0,0 -0.012,0 c -0.049,-0.09 -0.217,-0.12 -0.318,-0.138 -0.643,-0.113 -1.44,-0.113 -1.44,-0.714 0,-0.377 0.331,-0.611 0.69,-0.611 0.582,0 1.08,0.366 1.08,0.971 L 0,0 z m -2.016,0.456 c 0.043,0.726 0.539,1.037 1.254,1.037 0.545,0 1.139,-0.161 1.139,-0.995 l 0,-1.643 c 0,-0.15 0.072,-0.228 0.223,-0.228 0.041,0 0.078,0.006 0.119,0.024 l 0,-0.318 c -0.09,-0.018 -0.145,-0.024 -0.246,-0.024 -0.383,0 -0.444,0.222 -0.444,0.54 l -0.011,0 c -0.27,-0.402 -0.528,-0.63 -1.127,-0.63 -0.577,0 -1.039,0.282 -1.039,0.906 0,0.863 0.845,0.899 1.662,0.995 C -0.174,0.15 0,0.204 0,0.54 c 0,0.51 -0.361,0.635 -0.811,0.635 -0.472,0 -0.808,-0.216 -0.828,-0.719 l -0.377,0 z"
             style="fill:#231f20;fill-opacity:1;fill-rule:nonzero;stroke:none"
             id="path352" /></g><g
           id="g354"
           transform="translate(177.9995,23.9668)"><path
             d="m 0,0 0.629,0 0,-0.318 -0.629,0 0,-2.087 c 0,-0.245 0.035,-0.389 0.307,-0.408 0.107,0 0.214,0.007 0.322,0.019 l 0,-0.324 c -0.113,0 -0.221,-0.012 -0.336,-0.012 -0.502,0 -0.678,0.168 -0.67,0.695 l 0,2.117 -0.541,0 0,0.318 0.541,0 0,0.93 L 0,0.93 0,0 z"
             style="fill:#231f20;fill-opacity:1;fill-rule:nonzero;stroke:none"
             id="path356" /></g><path
           d="m 179.183,23.967 0.377,0 0,-3.094 -0.377,0 0,3.094 z m 0,1.187 0.377,0 0,-0.606 -0.377,0 0,0.606 z"
           style="fill:#231f20;fill-opacity:1;fill-rule:nonzero;stroke:none"
           id="path358" /><g
           id="g360"
           transform="translate(180.5093,22.4199)"><path
             d="M 0,0 C 0,-0.654 0.365,-1.319 1.084,-1.319 1.805,-1.319 2.17,-0.654 2.17,0 2.17,0.653 1.805,1.319 1.084,1.319 0.365,1.319 0,0.653 0,0 m 2.547,0 c 0,-0.888 -0.522,-1.637 -1.463,-1.637 -0.941,0 -1.463,0.749 -1.463,1.637 0,0.887 0.522,1.637 1.463,1.637 0.941,0 1.463,-0.75 1.463,-1.637"
             style="fill:#231f20;fill-opacity:1;fill-rule:nonzero;stroke:none"
             id="path362" /></g><g
           id="g364"
           transform="translate(183.6167,23.9668)"><path
             d="m 0,0 0.377,0 0,-0.534 0.012,0 c 0.144,0.372 0.552,0.624 0.99,0.624 0.869,0 1.133,-0.456 1.133,-1.194 l 0,-1.99 -0.377,0 0,1.931 c 0,0.527 -0.174,0.935 -0.785,0.935 -0.606,0 -0.954,-0.456 -0.973,-1.061 l 0,-1.805 L 0,-3.094 0,0 z"
             style="fill:#231f20;fill-opacity:1;fill-rule:nonzero;stroke:none"
             id="path366" /></g><g
           id="g368"
           transform="translate(188.8237,22.5635)"><path
             d="m 0,0 -0.012,0 c -0.049,-0.09 -0.217,-0.12 -0.318,-0.138 -0.643,-0.113 -1.44,-0.113 -1.44,-0.714 0,-0.377 0.331,-0.611 0.69,-0.611 0.582,0 1.08,0.366 1.08,0.971 L 0,0 z m -2.016,0.456 c 0.043,0.726 0.539,1.037 1.254,1.037 0.545,0 1.139,-0.161 1.139,-0.995 l 0,-1.643 c 0,-0.15 0.072,-0.228 0.223,-0.228 0.041,0 0.078,0.006 0.119,0.024 l 0,-0.318 c -0.09,-0.018 -0.145,-0.024 -0.246,-0.024 -0.383,0 -0.444,0.222 -0.444,0.54 l -0.011,0 c -0.27,-0.402 -0.528,-0.63 -1.127,-0.63 -0.577,0 -1.039,0.282 -1.039,0.906 0,0.863 0.845,0.899 1.662,0.995 C -0.174,0.15 0,0.204 0,0.54 c 0,0.51 -0.361,0.635 -0.811,0.635 -0.472,0 -0.808,-0.216 -0.828,-0.719 l -0.377,0 z"
             style="fill:#231f20;fill-opacity:1;fill-rule:nonzero;stroke:none"
             id="path370" /></g><path
           d="m 189.964,25.154 0.377,0 0,-4.282 -0.377,0 0,4.282 z"
           style="fill:#231f20;fill-opacity:1;fill-rule:nonzero;stroke:none"
           id="path372" /><g
           id="g374"
           transform="translate(193.2163,21.2202)"><path
             d="m 0,0 1.404,0 c 0.606,0 1.127,0.186 1.127,0.882 0,0.552 -0.408,0.827 -1.127,0.827 L 0,1.709 0,0 z m 0,2.057 1.404,0 c 0.647,0 0.965,0.324 0.965,0.726 0,0.533 -0.324,0.803 -0.965,0.803 L 0,3.586 0,2.057 z m -0.408,1.877 1.812,0 c 0.719,0 1.373,-0.252 1.373,-1.049 0,-0.45 -0.3,-0.864 -0.744,-0.96 l 0,-0.012 C 2.584,1.841 2.939,1.427 2.939,0.87 2.939,0.462 2.795,-0.348 1.404,-0.348 l -1.812,0 0,4.282 z"
             style="fill:#231f20;fill-opacity:1;fill-rule:nonzero;stroke:none"
             id="path376" /></g><path
           d="m 196.746,23.967 0.377,0 0,-3.094 -0.377,0 0,3.094 z m 0,1.187 0.377,0 0,-0.606 -0.377,0 0,0.606 z"
           style="fill:#231f20;fill-opacity:1;fill-rule:nonzero;stroke:none"
           id="path378" /><g
           id="g380"
           transform="translate(198.0718,22.4199)"><path
             d="M 0,0 C 0,-0.654 0.365,-1.319 1.084,-1.319 1.805,-1.319 2.17,-0.654 2.17,0 2.17,0.653 1.805,1.319 1.084,1.319 0.365,1.319 0,0.653 0,0 m 2.547,0 c 0,-0.888 -0.522,-1.637 -1.463,-1.637 -0.941,0 -1.463,0.749 -1.463,1.637 0,0.887 0.522,1.637 1.463,1.637 0.941,0 1.463,-0.75 1.463,-1.637"
             style="fill:#231f20;fill-opacity:1;fill-rule:nonzero;stroke:none"
             id="path382" /></g><path
           d="m 201.191,25.154 0.377,0 0,-4.282 -0.377,0 0,4.282 z"
           style="fill:#231f20;fill-opacity:1;fill-rule:nonzero;stroke:none"
           id="path384" /><g
           id="g386"
           transform="translate(202.5171,22.4199)"><path
             d="m 0,0 c 0,-0.654 0.365,-1.319 1.086,-1.319 0.719,0 1.086,0.665 1.086,1.319 0,0.653 -0.367,1.319 -1.086,1.319 C 0.365,1.319 0,0.653 0,0 m 2.549,0 c 0,-0.888 -0.522,-1.637 -1.463,-1.637 -0.941,0 -1.463,0.749 -1.463,1.637 0,0.887 0.522,1.637 1.463,1.637 0.941,0 1.463,-0.75 1.463,-1.637"
             style="fill:#231f20;fill-opacity:1;fill-rule:nonzero;stroke:none"
             id="path388" /></g><g
           id="g390"
           transform="translate(207.8687,22.4556)"><path
             d="m 0,0 c 0,0.606 -0.277,1.283 -0.996,1.283 -0.719,0 -1.02,-0.641 -1.02,-1.283 0,-0.624 0.319,-1.229 1.02,-1.229 C -0.342,-1.229 0,-0.624 0,0 m 0.377,-1.331 c 0,-0.93 -0.371,-1.487 -1.373,-1.487 -0.617,0 -1.234,0.281 -1.283,0.935 l 0.377,0 C -1.824,-2.338 -1.41,-2.5 -0.996,-2.5 -0.295,-2.5 0,-2.093 0,-1.331 l 0,0.42 -0.012,0 c -0.174,-0.384 -0.535,-0.636 -0.984,-0.636 -0.99,0 -1.397,0.702 -1.397,1.589 0,0.852 0.504,1.559 1.397,1.559 0.455,0 0.834,-0.282 0.984,-0.623 l 0.012,0 0,0.533 0.377,0 0,-2.842 z"
             style="fill:#231f20;fill-opacity:1;fill-rule:nonzero;stroke:none"
             id="path392" /></g><g
           id="g394"
           transform="translate(208.6187,23.9668)"><path
             d="M 0,0 0.402,0 1.422,-2.639 2.375,0 2.754,0 1.41,-3.568 C 1.187,-4.09 1.068,-4.24 0.594,-4.24 0.445,-4.233 0.373,-4.233 0.307,-4.209 l 0,0.317 c 0.089,-0.018 0.168,-0.03 0.257,-0.03 0.336,0 0.415,0.198 0.54,0.486 L 1.236,-3.082 0,0 z"
             style="fill:#231f20;fill-opacity:1;fill-rule:nonzero;stroke:none"
             id="path396" /></g><g
           id="g398"
           transform="translate(117.8613,30.4829)"><path
             d="m 0,0 3.57,0 c 1.245,0 2.01,0.735 2.01,1.92 0,1.395 -1.125,1.785 -2.325,1.785 L 0,3.705 0,0 z m 0,4.905 2.85,0 c 1.62,0 2.28,0.57 2.28,1.71 0,1.5 -1.035,1.695 -2.28,1.695 L 0,8.31 0,4.905 z m -1.425,4.605 3.885,0 c 0.93,0 2.205,0 2.835,-0.39 C 6,8.7 6.555,7.95 6.555,6.885 6.555,5.745 5.97,4.89 4.965,4.485 l 0,-0.03 C 6.285,4.17 7.005,3.195 7.005,1.875 7.005,0.315 5.865,-1.2 3.75,-1.2 l -5.175,0 0,10.71 z"
             style="fill:#231f20;fill-opacity:1;fill-rule:nonzero;stroke:none"
             id="path400" /></g><path
           d="m 127.058,37.038 1.275,0 0,-7.755 -1.275,0 0,7.755 z"
           style="fill:#231f20;fill-opacity:1;fill-rule:nonzero;stroke:none"
           id="path402" /><g
           id="g404"
           transform="translate(134.25,30.228)"><path
             d="M 0,0 C 1.335,0 2.415,1.05 2.415,2.925 2.415,4.8 1.335,5.865 0,5.865 -1.335,5.865 -2.415,4.8 -2.415,2.925 -2.415,1.05 -1.335,0 0,0 m 0,6.99 c 2.46,0 3.765,-1.785 3.765,-4.065 0,-2.265 -1.305,-4.05 -3.765,-4.05 -2.46,0 -3.765,1.785 -3.765,4.05 0,2.28 1.305,4.065 3.765,4.065"
             style="fill:#231f20;fill-opacity:1;fill-rule:nonzero;stroke:none"
             id="path406" /></g><path
           d="m 140.187,34.053 4.334,0 0,-1.2 -4.334,0 0,1.2 z"
           style="fill:#231f20;fill-opacity:1;fill-rule:nonzero;stroke:none"
           id="path408" /><path
           d="m 146.694,39.993 1.426,0 0,-10.709 -1.426,0 0,10.709 z"
           style="fill:#231f20;fill-opacity:1;fill-rule:nonzero;stroke:none"
           id="path410" /><g
           id="g412"
           transform="translate(153.8618,38.793)"><path
             d="m 0,0 -3.57,0 0,1.2 8.564,0 0,-1.2 -3.57,0 0,-9.51 L 0,-9.51 0,0 z"
             style="fill:#231f20;fill-opacity:1;fill-rule:nonzero;stroke:none"
             id="path414" /></g><g
           id="g416"
           transform="translate(126.5615,38.9604)"><path
             d="M 0,0 C 0,0.626 0.508,1.133 1.134,1.133 1.76,1.133 2.268,0.626 2.268,0 2.268,-0.627 1.76,-1.134 1.134,-1.134 0.508,-1.134 0,-0.627 0,0"
             style="fill:#e3182c;fill-opacity:1;fill-rule:nonzero;stroke:none"
             id="path418" /></g></g></g></g></svg>